<?xml version="1.0" encoding="UTF-8" standalone="no"?>
<svg width="111px" height="29px" viewBox="0 0 111 29" version="1.1" xmlns="http://www.w3.org/2000/svg" xmlns:xlink="http://www.w3.org/1999/xlink" xmlns:sketch="http://www.bohemiancoding.com/sketch/ns">
    <!-- Generator: Sketch 3.3.3 (12081) - http://www.bohemiancoding.com/sketch -->
    <title>aircontrol-cloud</title>
    <desc>Created with Sketch.</desc>
    <defs></defs>
    <g id="Page-1" stroke="none" stroke-width="1" fill="none" fill-rule="evenodd" sketch:type="MSPage">
        <g id="Artboard-1" sketch:type="MSArtboardGroup" transform="translate(-516.000000, -272.000000)" fill="#D8D8D8">
            <g id="aircontrol-cloud-+-Rectangle" sketch:type="MSLayerGroup" transform="translate(494.000000, 260.000000)">
                <g id="aircontrol-cloud" transform="translate(22.000000, 12.000000)" sketch:type="MSShapeGroup">
                    <path d="M43.4554634,19.7705434 L43.4554634,20.2676084 C43.4554634,24.5556663 41.7455027,28.7434391 36.2249944,28.7434391 C30.3080391,28.7434391 28.4670073,24.887479 28.4670073,16.4127383 C28.4670073,7.9369076 30.3080391,4.08203752 36.257331,4.08203752 C42.9296699,4.08203752 43.3230988,9.06729451 43.3230988,11.5268943 L43.3230988,11.9592101 L39.5774399,11.9592101 L39.5774399,11.560468 C39.5774399,9.36662358 38.9201442,6.84009437 36.2249944,6.94059743 C33.4628001,6.94059743 32.2146064,8.66855243 32.2146064,16.3122353 C32.2146064,23.9580982 33.4625845,25.8848792 36.2249944,25.8848792 C39.3465564,25.8848792 39.7087266,22.3640019 39.7087266,20.1690674 L39.7087266,19.7703254 L43.4554634,19.7703254 L43.4554634,19.7705434 Z M50.9176781,9.93214405 C56.0770942,9.93214405 57.5227568,13.7881042 57.5227568,19.3395357 C57.5227568,24.887915 55.8472886,28.7436571 50.9176781,28.7436571 C46.0201888,28.7436571 44.3455828,24.887697 44.3455828,19.3395357 C44.3455828,13.7878862 45.7903832,9.93214405 50.9176781,9.93214405 L50.9176781,9.93214405 Z M50.9176781,26.0850133 C53.5145246,26.0850133 53.9739202,23.8922589 53.9739202,19.3393177 C53.9739202,15.3839445 53.514309,12.5905699 50.9176781,12.5905699 C48.3529528,12.5905699 47.8933416,15.3841625 47.8933416,19.3393177 C47.8933416,23.8922589 48.3529528,26.0850133 50.9176781,26.0850133 L50.9176781,26.0850133 Z M59.4301864,10.3978155 L62.7834943,10.3978155 L62.7834943,12.4911569 L62.8817976,12.4911569 C63.7699768,10.8959706 65.4443672,9.93214405 67.4171168,9.93214405 C70.112051,9.93214405 71.821796,11.161944 71.821796,14.7833243 L71.821796,28.2788577 L68.2718815,28.2788577 L68.2718815,16.0142143 C68.2718815,13.6884732 67.5816024,12.790486 65.8054595,12.790486 C64.3606592,12.790486 62.9801009,13.9533565 62.9801009,16.2799696 L62.9801009,28.2788577 L59.4301864,28.2788577 L59.4301864,10.3978155 L59.4301864,10.3978155 Z M72.841262,10.3978155 L75.2736228,10.3978155 L75.2736228,5.31205544 L78.8213815,5.31205544 L78.8213815,10.3978155 L81.7142158,10.3978155 L81.7142158,13.0562413 L78.8213815,13.0562413 L78.8213815,23.7248265 C78.8213815,25.1209688 79.2178285,25.6193418 80.4339011,25.6193418 C80.9586167,25.6193418 81.3861069,25.5857682 81.7142158,25.5221089 L81.7142158,28.1794447 C80.9586167,28.3782707 79.9734276,28.4776838 78.8565206,28.4776838 C76.4554186,28.4776838 75.2736228,27.8151484 75.2736228,24.1571422 L75.2736228,13.0562413 L72.841262,13.0562413 L72.841262,10.3978155 L72.841262,10.3978155 Z M82.7334662,10.3978155 L86.2855365,10.3978155 L86.2855365,13.1903181 L86.3487007,13.1903181 C87.1392233,11.1944276 88.4538148,9.93214405 90.4576076,9.93214405 C90.8508209,9.93214405 91.0836446,9.99798336 91.3123723,10.0651307 L91.3123723,13.7211748 C91.0485055,13.6553355 90.4244087,13.5212587 89.8332952,13.5212587 C88.2240092,13.5212587 86.2855365,14.2539936 86.2855365,17.5760449 L86.2855365,28.2790758 L82.7334662,28.2790758 L82.7334662,10.3978155 L82.7334662,10.3978155 Z M98.1494124,9.93214405 C103.308828,9.93214405 104.753413,13.7881042 104.753413,19.3395357 C104.753413,24.887915 103.077945,28.7436571 98.1494124,28.7436571 C93.251923,28.7436571 91.5740834,24.887697 91.5740834,19.3395357 C91.574299,13.7878862 93.0212551,9.93214405 98.1494124,9.93214405 L98.1494124,9.93214405 Z M98.1494124,26.0850133 C100.743025,26.0850133 101.206732,23.8922589 101.206732,19.3393177 C101.206732,15.3839445 100.743025,12.5905699 98.1494124,12.5905699 C95.584687,12.5905699 95.1250758,15.3841625 95.1250758,19.3393177 C95.1252914,23.8922589 95.584687,26.0850133 98.1494124,26.0850133 L98.1494124,26.0850133 Z M106.826622,4.54705493 L110.375674,4.54705493 L110.375674,28.2788577 L106.826622,28.2788577 L106.826622,4.54705493 Z M11.7927353,16.8871302 C12.3308168,14.3102405 10.5063845,13.307608 7.95610279,13.307608 C4.14641741,13.307608 2.53928724,15.0146339 1.89449497,18.1086457 L4.62995772,18.1086457 C4.9270235,16.6976787 5.48903401,15.3150531 7.42125504,15.3150531 C8.9509929,15.3150531 9.21895571,16.1554854 8.9509929,17.4846983 C8.68173661,18.7594085 7.95631836,19.0578655 6.85838222,19.3571946 L4.47064595,19.982014 C2.37803527,20.6329948 0.849375304,21.3101369 0.151766552,24.5652588 C-0.440209231,27.3588514 0.741802138,28.661903 3.04869684,28.661903 C4.73882435,28.661903 6.02517522,27.9564195 7.09939785,26.5184191 L7.15437011,26.5184191 C6.9390082,27.9293861 7.90371746,28.4454181 9.19222411,28.4454181 C9.75617481,28.4454181 10.2925316,28.2559666 10.6669897,28.0937664 L11.0696885,26.1931467 C10.9629776,26.2485215 10.773485,26.2746828 10.5861481,26.2746828 C10.1577957,26.2746828 9.94351165,25.7880823 10.048929,25.2437089 L11.7927353,16.8871302 L11.7927353,16.8871302 Z M7.76855037,23.0193429 C7.31325072,25.1628269 6.18728949,26.4920398 4.44326761,26.4920398 C3.23560252,26.4920398 2.86071327,25.5144786 3.10194448,24.2929631 C3.34101992,23.2085765 3.88017921,22.3400207 4.7909941,21.9338663 C5.73177426,21.5257497 7.42082388,21.174098 8.27990017,20.5763119 L7.76855037,23.0193429 L7.76855037,23.0193429 Z M14.8819608,13.6865111 L11.8218383,28.2829999 L14.7194153,28.2829999 L17.7778132,13.6865111 L14.8819608,13.6865111 Z M26.4179433,13.307608 C24.7806323,13.307608 23.492988,14.3374918 22.4996069,15.9640717 L22.4467904,15.9640717 L22.9301151,13.6865111 L20.0310291,13.6865111 L16.974787,28.283218 L19.8717173,28.283218 L21.6963652,19.5468641 C22.2853229,16.8328455 23.9765283,16.2374575 25.2900419,16.2374575 C25.7733666,16.2374575 26.283423,16.3451549 26.4709754,16.3996577 L27.0877426,13.4146514 C26.9269218,13.3610207 26.7395849,13.307608 26.4179433,13.307608 L26.4179433,13.307608 Z" id="Shape"></path>
                    <path d="M23.3550184,8.02084182 C23.362348,7.92099279 23.3845525,7.825722 23.3845525,7.72369286 C23.3845525,5.46749727 21.5758573,3.63816717 19.3446303,3.63816717 C17.7719926,3.63816717 16.4242021,4.55621139 15.7567742,5.88280818 C14.6159381,6.32362637 13.8021331,7.43286622 13.8021331,8.74158611 C13.8021331,10.4359674 15.1602713,11.8094366 16.8357395,11.8094366 L16.9478398,11.797882 L16.9478398,11.8094366 L22.9068328,11.8094366 C23.9575574,11.8094366 24.8095197,10.9478572 24.8095197,9.8854897 C24.8090885,8.9798721 24.1882254,8.22533612 23.3550184,8.02084182 L23.3550184,8.02084182 Z M20.7545071,1.96144475 L20.5820451,2.91066454 C22.349565,3.29501789 23.7421955,4.71230725 24.1058748,6.50566554 L25.0347981,6.29310484 C24.5876904,4.12607573 22.8969162,2.4153436 20.7545071,1.96144475 L20.7545071,1.96144475 Z M21.104605,0.0337917013 L20.9325741,0.981267403 C23.4625915,1.50689187 25.4618572,3.52000522 25.9951959,6.07356778 L26.9241193,5.86122509 C26.3071365,2.93399172 24.009296,0.629179677 21.104605,0.0337917013 L21.104605,0.0337917013 Z" id="Shape"></path>
                </g>
            </g>
        </g>
    </g>
</svg>