<?xml version="1.0" encoding="UTF-8" standalone="no"?>
<svg width="161px" height="25px" viewBox="0 0 161 25" version="1.1" xmlns="http://www.w3.org/2000/svg" xmlns:xlink="http://www.w3.org/1999/xlink" xmlns:sketch="http://www.bohemiancoding.com/sketch/ns">
    <!-- Generator: Sketch 3.3.3 (12081) - http://www.bohemiancoding.com/sketch -->
    <title>airCRM-Market</title>
    <desc>Created with Sketch.</desc>
    <defs></defs>
    <g id="Page-1" stroke="none" stroke-width="1" fill="none" fill-rule="evenodd" sketch:type="MSPage">
        <g id="Artboard-1" sketch:type="MSArtboardGroup" transform="translate(-663.000000, -347.000000)" fill="#D8D8D8">
            <g id="airCRM-Market-+-Rectangle" sketch:type="MSLayerGroup" transform="translate(641.000000, 332.000000)">
                <g id="airCRM-Market" transform="translate(22.000000, 15.000000)" sketch:type="MSShapeGroup">
                    <g id="Group">
                        <g id="Shape">
                            <g>
                                <path d="M11.3352273,13.6363636 C11.8465909,11.1931818 10.0852273,10.2272727 7.64204545,10.2272727 C3.97727273,10.2272727 2.41477273,11.8465909 1.81818182,14.8011364 L4.46022727,14.8011364 C4.74431818,13.4659091 5.28409091,12.1306818 7.15909091,12.1306818 C8.63636364,12.1306818 8.89204545,12.9261364 8.63636364,14.2045455 C8.38068182,15.4261364 7.67045455,15.7102273 6.61931818,15.9943182 L4.31818182,16.5909091 C2.30113636,17.2159091 0.823863636,17.8693182 0.170454545,20.9659091 C-0.397727273,23.6363636 0.738636364,24.8579545 2.95454545,24.8579545 C4.57386364,24.8579545 5.82386364,24.1761364 6.84659091,22.8125 L6.90340909,22.8125 C6.70454545,24.1477273 7.61363636,24.6590909 8.86363636,24.6590909 C9.40340909,24.6590909 9.91477273,24.4886364 10.2840909,24.3181818 L10.6818182,22.5 C10.5681818,22.5568182 10.3977273,22.5852273 10.2272727,22.5852273 C9.80113636,22.5852273 9.60227273,22.1306818 9.71590909,21.5909091 L11.3352273,13.6363636 L11.3352273,13.6363636 Z M7.47159091,19.4602273 C7.04545455,21.5056818 5.9375,22.7556818 4.26136364,22.7556818 C3.09659091,22.7556818 2.72727273,21.8181818 2.98295455,20.6534091 C3.21022727,19.6306818 3.72159091,18.8068182 4.60227273,18.4090909 C5.51136364,18.0113636 7.13068182,17.6988636 7.95454545,17.1306818 L7.47159091,19.4602273 L7.47159091,19.4602273 Z"></path>
                                <path d="M14.3181818,10.5965909 L11.3636364,24.4886364 L14.1761364,24.4886364 L17.1022727,10.5965909 L14.3181818,10.5965909 Z"></path>
                                <path d="M25.4261364,10.2272727 C23.8636364,10.2272727 22.6136364,11.2215909 21.6477273,12.7556818 L21.5909091,12.7556818 L22.0454545,10.5965909 L19.2613636,10.5965909 L16.3068182,24.4886364 L19.0909091,24.4886364 L20.8522727,16.1647727 C21.4204545,13.5795455 23.0397727,13.0113636 24.3181818,13.0113636 C24.7727273,13.0113636 25.2840909,13.125 25.4545455,13.1534091 L26.0511364,10.3125 C25.9090909,10.2840909 25.7386364,10.2272727 25.4261364,10.2272727 L25.4261364,10.2272727 Z"></path>
                                <path d="M19.5454545,2.52840909 C20.9090909,3.4375 22.1022727,5.02840909 22.1306818,8.35227273 L23.5511364,8.35227273 C23.5795455,4.65909091 22.0738636,2.47159091 20.3125,1.36363636 C18.5795455,0.227272727 16.6761364,0.113636364 15.7670455,0.113636364 L15.3977273,0.113636364 L15.3977273,1.53409091 L15.7670455,1.53409091 C16.5340909,1.47727273 18.1818182,1.61931818 19.5454545,2.52840909 L19.5454545,2.52840909 Z"></path>
                                <path d="M18.7784091,3.4375 C17.5284091,2.64204545 16.2215909,2.55681818 15.5965909,2.55681818 L15.3977273,2.55681818 L15.3977273,3.97727273 L15.5965909,3.97727273 C16.0795455,3.97727273 17.1590909,4.0625 18.0113636,4.63068182 C18.8636364,5.19886364 19.6306818,6.16477273 19.6590909,8.38068182 L21.0511364,8.38068182 C21.0795455,5.79545455 20.0284091,4.20454545 18.7784091,3.4375 L18.7784091,3.4375 Z"></path>
                                <path d="M15.4829545,6.44886364 C15.6818182,6.44886364 16.1647727,6.50568182 16.5056818,6.73295455 C16.8465909,6.96022727 17.1590909,7.30113636 17.1590909,8.32386364 L17.1590909,8.38068182 L18.5511364,8.38068182 L18.5511364,8.32386364 C18.5511364,6.96022727 17.9545455,6.02272727 17.2443182,5.56818182 C16.5340909,5.11363636 15.7954545,5.08522727 15.4545455,5.05681818 L15.3693182,5.05681818 L15.3693182,6.44886364 L15.4829545,6.44886364 L15.4829545,6.44886364 Z"></path>
                            </g>
                            <path d="M80.8806818,2.15909091 L80.1704545,2.15909091 L80.1704545,1.76136364 L82.1022727,1.76136364 L82.1022727,2.15909091 L81.3920455,2.15909091 L81.3920455,4.14772727 L80.8806818,4.14772727 L80.8806818,2.15909091 L80.8806818,2.15909091 Z M84.7727273,2.27272727 L84.7727273,2.27272727 L84.0625,4.17613636 L83.75,4.17613636 L83.0397727,2.27272727 L83.0397727,4.17613636 L82.5852273,4.17613636 L82.5852273,1.78977273 L83.2670455,1.78977273 L83.9204545,3.49431818 L84.5738636,1.78977273 L85.2556818,1.78977273 L85.2556818,4.17613636 L84.8011364,4.17613636 L84.8011364,2.27272727 L84.7727273,2.27272727 Z"></path>
                            <g transform="translate(27.272727, 1.136364)">
                                <path d="M14.5454545,15.1136364 L14.5454545,15.5965909 C14.5454545,19.6875 12.8977273,23.6647727 7.58522727,23.6647727 C1.90340909,23.6647727 0.113636364,20 0.113636364,11.9318182 C0.113636364,3.86363636 1.875,0.198863636 7.61363636,0.198863636 C14.0340909,0.198863636 14.4034091,4.94318182 14.4034091,7.27272727 L14.4034091,7.67045455 L10.7954545,7.67045455 L10.7954545,7.30113636 C10.7954545,5.22727273 10.1704545,2.8125 7.55681818,2.89772727 C4.88636364,2.89772727 3.69318182,4.54545455 3.69318182,11.8181818 C3.69318182,19.0909091 4.88636364,20.9375 7.55681818,20.9375 C10.5681818,20.9375 10.9090909,17.5852273 10.9090909,15.5113636 L10.9090909,15.1420455 L14.5454545,15.1420455 L14.5454545,15.1136364 Z"></path>
                                <path d="M16.2784091,0.653409091 L24.2613636,0.653409091 C27.4147727,0.653409091 29.9715909,2.24431818 29.9715909,6.47727273 C29.9715909,9.375 28.6647727,11.6193182 26.2215909,12.0170455 L26.2215909,12.0738636 C28.4659091,12.3011364 29.6306818,13.5227273 29.7727273,16.7045455 C29.8011364,18.1534091 29.8295455,19.9431818 29.8863636,21.2784091 C29.9431818,22.3863636 30.4829545,22.9261364 30.9659091,23.2386364 L26.875,23.2386364 C26.5340909,22.8409091 26.3636364,22.1306818 26.2784091,21.25 C26.1647727,19.8863636 26.1931818,18.6363636 26.1079545,16.9886364 C26.0511364,14.5170455 25.2840909,13.4375 22.8125,13.4375 L19.8863636,13.4375 L19.8863636,23.2386364 L16.2784091,23.2386364 L16.2784091,0.653409091 L16.2784091,0.653409091 Z M22.7556818,10.7102273 C25.0568182,10.7102273 26.3636364,9.31818182 26.3636364,7.04545455 C26.3636364,4.63068182 25.3125,3.38068182 22.9545455,3.38068182 L19.8863636,3.38068182 L19.8863636,10.7102273 L22.7556818,10.7102273 L22.7556818,10.7102273 Z"></path>
                                <path d="M32.4715909,0.653409091 L38.0965909,0.653409091 L42.0738636,17.3863636 L42.1306818,17.3863636 L46.0511364,0.653409091 L51.5625,0.653409091 L51.5625,23.2386364 L48.1534091,23.2386364 L48.1534091,4.46022727 L48.0965909,4.46022727 L43.5511364,23.2386364 L40.5113636,23.2386364 L35.9659091,4.46022727 L35.9090909,4.46022727 L35.9090909,23.2386364 L32.5,23.2386364 L32.5,0.653409091 L32.4715909,0.653409091 Z"></path>
                            </g>
                        </g>
                        <g transform="translate(87.636364, 1.704545)" id="Shape">
                            <path d="M1,0.0852272727 L4.52272727,0.0852272727 L9.94886364,20.1420455 L10.0056818,20.1420455 L15.4318182,0.0852272727 L18.7556818,0.0852272727 L18.7556818,22.6704545 L16.7386364,22.6704545 L16.7386364,1.98863636 L16.6818182,1.98863636 L10.8295455,22.6704545 L8.92613636,22.6704545 L3.07386364,1.98863636 L3.01704545,1.98863636 L3.01704545,22.6704545 L1,22.6704545 L1,0.0852272727 L1,0.0852272727 Z"></path>
                            <path d="M21.4261364,10.8522727 C21.4261364,7.41477273 23.0738636,5.48295455 26.625,5.48295455 C30.0909091,5.48295455 31.3693182,7.27272727 31.3693182,9.94318182 L31.3693182,19.8863636 C31.3693182,20.8238636 31.6818182,21.2784091 32.3636364,21.2784091 L32.9034091,21.2784091 L32.9034091,22.6704545 C32.5625,22.7840909 32.2784091,22.8693182 32.0227273,22.8693182 C30.5454545,22.8693182 29.5795455,22.5284091 29.5795455,20.7954545 L29.5795455,20.2272727 L29.5227273,20.2272727 C28.7556818,22.4431818 27.0511364,23.0681818 25.2045455,23.0681818 C22.25,23.0681818 20.9431818,21.2215909 20.9431818,18.3238636 C20.9431818,16.1079545 21.9659091,14.3465909 24.3238636,13.6647727 L27.9034091,12.6420455 C29.2386364,12.2727273 29.5227273,11.9602273 29.5227273,10 C29.5227273,7.84090909 28.3295455,7.10227273 26.625,7.10227273 C24.3806818,7.10227273 23.3863636,8.46590909 23.3863636,10.9090909 L21.4261364,10.9090909 L21.4261364,10.8522727 Z M29.4659091,13.1534091 L29.4090909,13.1534091 C29.2102273,13.7215909 28.1306818,14.0625 27.3920455,14.2613636 L25.8011364,14.6590909 C23.8977273,15.1704545 22.9318182,16.1363636 22.9318182,18.125 C22.9318182,20.0852273 23.9545455,21.4204545 25.6022727,21.4204545 C27.9034091,21.4204545 29.4943182,19.6875 29.4943182,16.6761364 L29.4943182,13.1534091 L29.4659091,13.1534091 Z"></path>
                            <path d="M34.4659091,5.85227273 L36.3693182,5.85227273 L36.3693182,8.46590909 L36.4261364,8.46590909 C37.1647727,6.59090909 38.6988636,5.45454545 40.6590909,5.45454545 C40.8863636,5.45454545 41.1136364,5.48295455 41.3125,5.53977273 L41.3125,7.44318182 C41,7.38636364 40.6875,7.35795455 40.4034091,7.35795455 C38.3295455,7.35795455 36.3693182,8.86363636 36.3693182,12.1306818 L36.3693182,22.6420455 L34.4659091,22.6420455 L34.4659091,5.85227273 L34.4659091,5.85227273 Z"></path>
                            <path d="M42.25,0.0852272727 L44.1534091,0.0852272727 L44.1534091,14.2045455 L44.2102273,14.2045455 L50.7159091,5.85227273 L53.0454545,5.85227273 L47.9886364,12.0738636 L53.9545455,22.6420455 L51.625,22.6420455 L46.625,13.7784091 L44.125,16.7613636 L44.125,22.6420455 L42.2215909,22.6420455 L42.2215909,0.0852272727 L42.25,0.0852272727 Z"></path>
                            <path d="M64.8636364,17.0738636 C64.5795455,20.6534091 62.6193182,23.0113636 59.4659091,23.0113636 C55.9147727,23.0113636 53.8409091,20.5397727 53.8409091,14.2329545 C53.8409091,8.40909091 55.9147727,5.48295455 59.6363636,5.48295455 C63.3579545,5.48295455 65.0340909,8.03977273 65.0340909,13.6363636 L65.0340909,14.3181818 L55.8579545,14.3181818 L55.8579545,15.1136364 C55.8579545,19.9431818 57.5625,21.4488636 59.4375,21.4488636 C61.4261364,21.4488636 62.6761364,20.0284091 62.9886364,17.0738636 L64.8636364,17.0738636 L64.8636364,17.0738636 Z M63.0170455,12.7556818 C62.9602273,8.57954545 61.7954545,7.07386364 59.4375,7.07386364 C57.1079545,7.07386364 55.9147727,8.57954545 55.8579545,12.7556818 L63.0170455,12.7556818 L63.0170455,12.7556818 Z"></path>
                            <path d="M67.9034091,7.44318182 L65.6022727,7.44318182 L65.6022727,5.85227273 L67.9034091,5.85227273 L67.9034091,1.19318182 L69.8068182,1.19318182 L69.8068182,5.85227273 L72.7897727,5.85227273 L72.7897727,7.44318182 L69.8068182,7.44318182 L69.8068182,19.4886364 C69.8068182,20.8238636 70.375,21.25 71.5965909,21.25 C71.9659091,21.25 72.3636364,21.1931818 72.7613636,21.0511364 L72.7613636,22.6420455 C72.5340909,22.7556818 72.0795455,22.8409091 71.4261364,22.8409091 C68.8693182,22.8409091 67.875,22.1590909 67.875,19.8863636 L67.875,7.44318182 L67.9034091,7.44318182 Z"></path>
                        </g>
                    </g>
                </g>
            </g>
        </g>
    </g>
</svg>