<?xml version="1.0" encoding="UTF-8" standalone="no"?>
<svg width="146px" height="30px" viewBox="0 0 146 30" version="1.1" xmlns="http://www.w3.org/2000/svg" xmlns:xlink="http://www.w3.org/1999/xlink" xmlns:sketch="http://www.bohemiancoding.com/sketch/ns">
    <!-- Generator: Sketch 3.3.3 (12081) - http://www.bohemiancoding.com/sketch -->
    <title>airCRM-Billing</title>
    <desc>Created with Sketch.</desc>
    <defs></defs>
    <g id="Page-1" stroke="none" stroke-width="1" fill="none" fill-rule="evenodd" sketch:type="MSPage">
        <g id="Artboard-1" sketch:type="MSArtboardGroup" transform="translate(-230.000000, -344.000000)" fill="#D8D8D8">
            <g id="airCRM-Billing-+-Rectangle" sketch:type="MSLayerGroup" transform="translate(211.000000, 332.000000)">
                <g id="airCRM-Billing" transform="translate(19.000000, 12.000000)" sketch:type="MSShapeGroup">
                    <g id="Group">
                        <g id="Shape">
                            <g>
                                <path d="M11.2378378,13.572973 C11.7567568,11.1405405 10.0054054,10.2 7.57297297,10.2 C3.94054054,10.2 2.4,11.8054054 1.8,14.7243243 L4.41081081,14.7243243 C4.68648649,13.3945946 5.22162162,12.0972973 7.07027027,12.0972973 C8.52972973,12.0972973 8.78918919,12.8918919 8.52972973,14.1405405 C8.27027027,15.3405405 7.58918919,15.6162162 6.53513514,15.9081081 L4.26486486,16.4918919 C2.27027027,17.0918919 0.810810811,17.7405405 0.145945946,20.8054054 C-0.421621622,23.4324324 0.713513514,24.6648649 2.9027027,24.6648649 C4.50810811,24.6648649 5.74054054,24 6.76216216,22.6378378 L6.81081081,22.6378378 C6.6,23.9675676 7.52432432,24.4540541 8.75675676,24.4540541 C9.29189189,24.4540541 9.81081081,24.2756757 10.1675676,24.1297297 L10.5567568,22.3459459 C10.4594595,22.3945946 10.2810811,22.427027 10.1027027,22.427027 C9.6972973,22.427027 9.48648649,21.972973 9.58378378,21.4540541 L11.2378378,13.572973 L11.2378378,13.572973 Z M7.41081081,19.3459459 C6.97297297,21.372973 5.9027027,22.6216216 4.23243243,22.6216216 C3.08108108,22.6216216 2.72432432,21.6972973 2.95135135,20.5459459 C3.17837838,19.5243243 3.6972973,18.6972973 4.55675676,18.3243243 C5.44864865,17.9351351 7.07027027,17.6108108 7.88108108,17.0432432 L7.41081081,19.3459459 L7.41081081,19.3459459 Z"></path>
                                <path d="M14.1891892,10.5405405 L11.2702703,24.3081081 L14.027027,24.3081081 L16.9459459,10.5405405 L14.1891892,10.5405405 Z"></path>
                                <path d="M25.1837838,10.1837838 C23.627027,10.1837838 22.3945946,11.1567568 21.4540541,12.6972973 L21.4054054,12.6972973 L21.8594595,10.5405405 L19.1027027,10.5405405 L16.1837838,24.3081081 L18.9405405,24.3081081 L20.6756757,16.0702703 C21.2432432,13.5081081 22.8486486,12.9567568 24.0972973,12.9567568 C24.5513514,12.9567568 25.0378378,13.0540541 25.2162162,13.1027027 L25.8,10.2810811 C25.6702703,10.2486486 25.4918919,10.1837838 25.1837838,10.1837838 L25.1837838,10.1837838 Z"></path>
                                <path d="M19.3621622,2.54594595 C20.7081081,3.43783784 21.9081081,5.01081081 21.9243243,8.31891892 L23.3189189,8.31891892 C23.3351351,4.67027027 21.8594595,2.48108108 20.1243243,1.37837838 C18.4054054,0.259459459 16.5243243,0.12972973 15.6324324,0.12972973 L15.2594595,0.12972973 L15.2594595,1.52432432 C15.3243243,1.52432432 15.4378378,1.50810811 15.6324324,1.50810811 C16.3783784,1.52432432 18,1.67027027 19.3621622,2.54594595 L19.3621622,2.54594595 Z"></path>
                                <path d="M18.6162162,3.45405405 C17.3837838,2.65945946 16.0864865,2.57837838 15.4540541,2.57837838 L15.2432432,2.57837838 L15.2432432,3.97297297 L15.4540541,3.97297297 C15.9405405,3.97297297 16.9945946,4.07027027 17.8540541,4.62162162 C18.6972973,5.18918919 19.4594595,6.14594595 19.4756757,8.31891892 L20.8702703,8.31891892 C20.9027027,5.78918919 19.8486486,4.23243243 18.6162162,3.45405405 L18.6162162,3.45405405 Z"></path>
                                <path d="M15.3567568,6.43783784 C15.5675676,6.43783784 16.0378378,6.48648649 16.3783784,6.71351351 C16.7027027,6.94054054 17.027027,7.28108108 17.0432432,8.28648649 L17.0432432,8.33513514 L18.4378378,8.33513514 L18.4378378,8.27027027 C18.4540541,6.92432432 17.8540541,6 17.1405405,5.54594595 C16.427027,5.09189189 15.7135135,5.05945946 15.3567568,5.04324324 L15.2594595,5.04324324 L15.2594595,6.43783784 L15.3567568,6.43783784 L15.3567568,6.43783784 Z"></path>
                            </g>
                            <path d="M80.1405405,2.18918919 L79.427027,2.18918919 L79.427027,1.8 L81.3405405,1.8 L81.3405405,2.18918919 L80.627027,2.18918919 L80.627027,4.16756757 L80.1243243,4.16756757 L80.1243243,2.18918919 L80.1405405,2.18918919 L80.1405405,2.18918919 Z M84,2.3027027 L84,2.3027027 L83.2864865,4.18378378 L82.9621622,4.18378378 L82.2648649,2.3027027 L82.2486486,2.3027027 L82.2486486,4.18378378 L81.7945946,4.18378378 L81.7945946,1.81621622 L82.4756757,1.81621622 L83.1243243,3.5027027 L83.772973,1.81621622 L84.4540541,1.81621622 L84.4540541,4.18378378 L84,4.18378378 L84,2.3027027 L84,2.3027027 Z"></path>
                            <g transform="translate(27.081081, 1.297297)">
                                <path d="M14.3513514,14.8702703 L14.3513514,15.3405405 C14.3513514,19.3783784 12.7297297,23.3351351 7.45945946,23.3351351 C1.81621622,23.3351351 0.0648648649,19.7027027 0.0648648649,11.7081081 C0.0648648649,3.71351351 1.81621622,0.0810810811 7.49189189,0.0810810811 C13.8486486,0.0810810811 14.2216216,4.78378378 14.2216216,7.1027027 L14.2216216,7.50810811 L10.6540541,7.50810811 L10.6540541,7.13513514 C10.6540541,5.05945946 10.0216216,2.69189189 7.45945946,2.77297297 C4.83243243,2.77297297 3.63243243,4.39459459 3.63243243,11.6108108 C3.63243243,18.827027 4.81621622,20.6432432 7.45945946,20.6432432 C10.4432432,20.6432432 10.7837838,17.3189189 10.7837838,15.2594595 L10.7837838,14.8864865 L14.3513514,14.8864865 L14.3513514,14.8702703 L14.3513514,14.8702703 Z"></path>
                                <path d="M16.0702703,0.518918919 L23.9675676,0.518918919 C27.0972973,0.518918919 29.6432432,2.09189189 29.6432432,6.29189189 C29.6432432,9.17837838 28.3621622,11.4 25.9135135,11.772973 L25.9135135,11.8378378 C28.1351351,12.0648649 29.3027027,13.2810811 29.4162162,16.4108108 C29.4486486,17.8540541 29.4810811,19.6054054 29.5459459,20.9513514 C29.6108108,22.0540541 30.1459459,22.572973 30.6162162,22.8972973 L26.5783784,22.8972973 C26.2378378,22.4918919 26.0756757,21.7945946 25.9783784,20.9189189 C25.8486486,19.572973 25.8810811,18.3243243 25.8162162,16.6864865 C25.7513514,14.2378378 25.0054054,13.1837838 22.5567568,13.1837838 L19.6378378,13.1837838 L19.6378378,22.8972973 L16.0702703,22.8972973 L16.0702703,0.518918919 L16.0702703,0.518918919 Z M22.4918919,10.4756757 C24.7783784,10.4756757 26.0594595,9.0972973 26.0594595,6.84324324 C26.0594595,4.45945946 25.0216216,3.21081081 22.6702703,3.21081081 L19.6378378,3.21081081 L19.6378378,10.4756757 L22.4918919,10.4756757 L22.4918919,10.4756757 Z"></path>
                                <path d="M32.1243243,0.518918919 L37.7027027,0.518918919 L41.6432432,17.0918919 L41.7081081,17.0918919 L45.6,0.518918919 L51.0486486,0.518918919 L51.0486486,22.8972973 L47.6594595,22.8972973 L47.6594595,4.28108108 L47.5945946,4.28108108 L43.0864865,22.8972973 L40.0702703,22.8972973 L35.5621622,4.28108108 L35.4972973,4.28108108 L35.4972973,22.8972973 L32.1081081,22.8972973 L32.1243243,0.518918919 L32.1243243,0.518918919 Z"></path>
                            </g>
                        </g>
                        <g transform="translate(87.567568, 1.783784)" id="Shape">
                            <path d="M0.0648648649,0.0324324324 L6.24324324,0.0324324324 C10.572973,0.0324324324 12.2594595,2.31891892 12.2594595,5.64324324 C12.2594595,7.83243243 11.0756757,9.94054054 8.80540541,10.5081081 L8.80540541,10.572973 C11.5621622,11.1081081 12.972973,13.2324324 12.972973,16.1513514 C12.972973,20.0756757 10.427027,22.4108108 6.21081081,22.4108108 L0.0648648649,22.4108108 L0.0648648649,0.0324324324 L0.0648648649,0.0324324324 Z M2.07567568,9.87567568 L5.23783784,9.87567568 C8.69189189,9.87567568 10.2486486,8.4 10.2486486,5.80540541 C10.2486486,2.82162162 8.70810811,1.73513514 5.57837838,1.73513514 L2.07567568,1.73513514 L2.07567568,9.87567568 L2.07567568,9.87567568 Z M2.07567568,20.7081081 L5.80540541,20.7081081 C9.27567568,20.7081081 10.9783784,19.1351351 10.9783784,16.1351351 C10.9783784,13.1189189 9.29189189,11.5621622 5.80540541,11.5621622 L2.07567568,11.5621622 L2.07567568,20.7081081 L2.07567568,20.7081081 Z"></path>
                            <path d="M15.1459459,0.0324324324 L17.027027,0.0324324324 L17.027027,3.22702703 L15.1459459,3.22702703 L15.1459459,0.0324324324 L15.1459459,0.0324324324 Z M15.1459459,5.75675676 L17.027027,5.75675676 L17.027027,22.3945946 L15.1459459,22.3945946 L15.1459459,5.75675676 L15.1459459,5.75675676 Z"></path>
                            <path d="M20.1243243,0.0324324324 L22.0054054,0.0324324324 L22.0054054,22.4108108 L20.1243243,22.4108108 L20.1243243,0.0324324324 L20.1243243,0.0324324324 Z"></path>
                            <path d="M25.1027027,0.0324324324 L26.9837838,0.0324324324 L26.9837838,22.4108108 L25.1027027,22.4108108 L25.1027027,0.0324324324 L25.1027027,0.0324324324 Z"></path>
                            <path d="M30.0972973,0.0324324324 L31.9783784,0.0324324324 L31.9783784,3.22702703 L30.0972973,3.22702703 L30.0972973,0.0324324324 L30.0972973,0.0324324324 Z M30.0972973,5.75675676 L31.9783784,5.75675676 L31.9783784,22.3945946 L30.0972973,22.3945946 L30.0972973,5.75675676 L30.0972973,5.75675676 Z"></path>
                            <path d="M34.9459459,5.75675676 L36.6324324,5.75675676 L36.6324324,8.07567568 L36.6972973,8.07567568 C37.6378378,6.22702703 39.2594595,5.38378378 40.9621622,5.38378378 C43.5081081,5.38378378 45.227027,6.6972973 45.227027,9.82702703 L45.227027,22.3945946 L43.3459459,22.3945946 L43.3459459,10.3783784 C43.3459459,8.09189189 42.4054054,6.95675676 40.4918919,6.95675676 C38.3027027,6.95675676 36.827027,8.64324324 36.827027,11.2216216 L36.827027,22.4108108 L34.9459459,22.4108108 L34.9459459,5.75675676 L34.9459459,5.75675676 Z"></path>
                            <path d="M56.6594595,5.75675676 L58.3459459,5.75675676 L58.3459459,21.2108108 C58.3459459,25.8162162 56.6594595,28.1675676 52.8972973,28.1675676 C49.6702703,28.1675676 47.9837838,26.4810811 47.9513514,24.0972973 L49.8324324,24.0972973 C49.8324324,25.6702703 51.3081081,26.6108108 52.9621622,26.6108108 C55.2486486,26.6108108 56.4648649,25.0054054 56.4648649,22.0702703 L56.4648649,19.4432432 L56.4,19.4432432 C55.8,21.4864865 54.2432432,22.427027 52.5081081,22.427027 C49.9459459,22.427027 47.3675676,20.7405405 47.3675676,14.0918919 C47.3675676,8.35135135 49.0216216,5.41621622 52.7027027,5.41621622 C54.5189189,5.41621622 55.9945946,6.48648649 56.5945946,8.36756757 L56.6594595,8.36756757 L56.6594595,5.75675676 L56.6594595,5.75675676 Z M52.9297297,20.8378378 C55.1513514,20.8378378 56.4648649,19.2162162 56.4648649,13.8810811 C56.4648649,8.57837838 55.1513514,6.95675676 52.9297297,6.95675676 C50.7081081,6.95675676 49.3945946,8.57837838 49.3945946,13.8810811 C49.3945946,19.2 50.7081081,20.8378378 52.9297297,20.8378378 L52.9297297,20.8378378 Z"></path>
                        </g>
                    </g>
                </g>
            </g>
        </g>
    </g>
</svg>