<?xml version="1.0" encoding="UTF-8" standalone="no"?>
<svg width="190px" height="29px" viewBox="0 0 190 29" version="1.1" xmlns="http://www.w3.org/2000/svg" xmlns:xlink="http://www.w3.org/1999/xlink" xmlns:sketch="http://www.bohemiancoding.com/sketch/ns">
    <!-- Generator: Sketch 3.3.3 (12081) - http://www.bohemiancoding.com/sketch -->
    <title>airCRM-Operations-beta</title>
    <desc>Created with Sketch.</desc>
    <defs></defs>
    <g id="Page-1" stroke="none" stroke-width="1" fill="none" fill-rule="evenodd" sketch:type="MSPage">
        <g id="Artboard-1" sketch:type="MSArtboardGroup" transform="translate(-885.000000, -347.000000)" fill="#D8D8D8">
            <g id="airCRM-Operations-beta-+-Rectangle" sketch:type="MSLayerGroup" transform="translate(865.000000, 332.000000)">
                <g id="airCRM-Operations-beta" transform="translate(20.000000, 15.000000)" sketch:type="MSShapeGroup">
                    <g id="Group">
                        <path d="M10.816116,12.9576139 C11.3126952,10.6143807 9.6367404,9.7143309 7.29350723,9.7143309 C3.80193462,9.7143309 2.32771507,11.2661409 1.73802725,14.059399 L4.25195953,14.059399 C4.51576724,12.7869148 5.04338266,11.5299487 6.81244611,11.5299487 C8.20907515,11.5299487 8.45736476,12.2903356 8.20907515,13.5007474 C7.96078555,14.6490869 7.29350723,14.9284127 6.28483069,15.1922204 L4.09677853,15.750872 C2.17253407,16.3405598 0.775905024,16.9612838 0.139662904,19.9097229 C-0.403470612,22.4391733 0.682796421,23.6185489 2.79325809,23.6185489 C4.34506813,23.6185489 5.52444377,22.9823068 6.5020841,21.6787864 L6.5486384,21.6787864 C6.3624212,22.9667887 7.24695292,23.4323317 8.42632856,23.4323317 C8.93842588,23.4323317 9.43500509,23.2616326 9.7764033,23.1064516 L10.1488377,21.3839425 C10.0557291,21.4304968 9.88503,21.461533 9.6988128,21.461533 C9.31086029,21.461533 9.10912498,21.011508 9.20223358,20.5304469 L10.816116,12.9576139 L10.816116,12.9576139 Z M7.12280812,18.5130939 C6.70381941,20.4528564 5.67962478,21.6632683 4.08126043,21.6632683 C2.97947529,21.6632683 2.63807708,20.7787365 2.85533049,19.6769514 C3.07258389,18.6993111 3.56916311,17.907888 4.40714054,17.5354535 C5.26063606,17.1630191 6.81244611,16.8526571 7.60386923,16.3095236 L7.12280812,18.5130939 L7.12280812,18.5130939 Z" id="Shape"></path>
                        <path d="M13.6404103,10.0557291 L10.8316341,23.2771507 L13.5007474,23.2771507 L16.2940055,10.0557291 L13.6404103,10.0557291 Z" id="Shape"></path>
                        <path d="M20.6235555,12.1196365 L20.5770012,12.1196365 L21.0270261,10.0557291 L18.373431,10.0557291 L15.5646548,23.2771507 L18.21825,23.2771507 L19.8942048,15.3629195 C20.4373383,12.9110596 21.9891484,12.3679261 23.1840421,12.3679261 C23.634067,12.3679261 24.09961,12.4610347 24.2703091,12.507589 L24.8289608,9.8074395 C24.6892979,9.7608852 24.5030807,9.7143309 24.2082367,9.7143309 C22.702981,9.7143309 21.5236054,10.6454169 20.6235555,12.1196365 L20.6235555,12.1196365 Z" id="Shape"></path>
                        <path d="M18.6217206,2.35875127 C19.925241,3.2122468 21.0735805,4.73302065 21.0890986,7.89871314 L22.4236552,7.89871314 C22.4391733,4.39162244 21.011508,2.29667887 19.3510713,1.22592994 C17.6906345,0.155181005 15.8905349,0.031036201 15.0370394,0.031036201 L14.6801231,0.031036201 L14.6801231,1.38111094 C14.7421955,1.38111094 14.8508222,1.36559284 15.0370394,1.36559284 C15.750872,1.38111094 17.302682,1.50525575 18.6217206,2.35875127 L18.6217206,2.35875127 Z" id="Shape"></path>
                        <path d="M17.1785372,4.36058623 C18.0009966,4.90371975 18.7303473,5.83480578 18.7458654,7.92974934 L20.080422,7.92974934 C20.0959401,5.47788947 19.0872636,3.97263372 17.907888,3.2277649 C16.7285123,2.46737798 15.4715462,2.38978747 14.8818584,2.37426937 L14.6801231,2.37426937 L14.6801231,3.72434411 L14.8818584,3.72434411 C15.3474014,3.72434411 16.3560779,3.81745272 17.1785372,4.36058623 L17.1785372,4.36058623 Z" id="Shape"></path>
                        <path d="M15.7353539,6.3624212 C16.061234,6.5796746 16.3560779,6.90555471 16.371596,7.86767694 L16.371596,7.91423124 L17.7061526,7.91423124 L17.7061526,7.85215884 C17.7216707,6.5641565 17.147501,5.66410667 16.4647046,5.22959986 C15.7819082,4.79509305 15.0991118,4.76405685 14.7577136,4.74853875 L14.664605,4.74853875 L14.664605,6.08309539 C14.6801231,6.09861349 14.6956412,6.09861349 14.7577136,6.09861349 C14.9594489,6.09861349 15.4094738,6.14516779 15.7353539,6.3624212 L15.7353539,6.3624212 Z" id="Shape"></path>
                        <path d="M79.9182175,3.2588011 L79.2974934,1.64491865 L78.6457332,1.64491865 L78.6457332,3.92607942 L79.0957581,3.92607942 L79.0957581,2.12597977 L79.1112762,2.12597977 L79.7785546,3.92607942 L80.0889166,3.92607942 L80.7406768,2.20357027 L80.7406768,3.92607942 L81.1907017,3.92607942 L81.1907017,1.64491865 L80.5389415,1.64491865 L79.9182175,3.2588011 Z" id="Shape"></path>
                        <path d="M76.3645725,2.01735306 L77.0318508,2.01735306 L77.0318508,3.92607942 L77.5129119,3.92607942 L77.5129119,2.01735306 L78.1957083,2.01735306 L78.1957083,1.64491865 L76.3645725,1.64491865 L76.3645725,2.01735306 Z" id="Shape"></path>
                        <path d="M36.4054637,15.8129444 C36.4054637,17.7992612 36.0640655,20.9959899 33.208735,20.9959899 C30.6792846,20.9959899 29.5309452,19.2579627 29.5309452,12.3213718 C29.5309452,5.40029897 30.6792846,3.83297082 33.208735,3.83297082 C35.676113,3.73986222 36.2813189,6.03654109 36.2813189,8.02285795 L36.2813189,8.37977426 L39.7108191,8.37977426 L39.7108191,7.99182175 C39.7108191,5.75721528 39.3539028,1.24144804 33.2397712,1.24144804 C27.792918,1.24144804 26.101445,4.73302065 26.101445,12.4144804 C26.101445,20.0959401 27.792918,23.5875127 33.208735,23.5875127 C38.2676358,23.5875127 39.8349639,19.7855781 39.8349639,15.906053 L39.8349639,15.4560281 L36.4054637,15.4560281 L36.4054637,15.8129444 L36.4054637,15.8129444 Z" id="Shape"></path>
                        <path d="M54.4374965,21.306352 C54.3754241,20.0028315 54.3443879,18.3113586 54.3133517,16.9302476 C54.204725,13.9197361 53.0874217,12.7558786 50.9459239,12.5386252 L50.9459239,12.4765528 C53.289157,12.1041184 54.5306051,9.97813861 54.5306051,7.20039862 C54.5306051,3.1656925 52.0942633,1.66043675 49.0837518,1.66043675 L41.4954007,1.66043675 L41.4798826,1.66043675 L41.4798826,23.1840421 L44.9093828,23.1840421 L44.9093828,13.8421456 L47.718159,13.8421456 C50.0769102,13.8421456 50.7907429,14.8663403 50.8528153,17.2095734 C50.9148877,18.7769016 50.8838515,19.9873134 51.0079963,21.2753158 C51.1011049,22.1132932 51.2562859,22.7805715 51.582166,23.168524 L55.4616911,23.168524 C55.0116662,22.8736801 54.4995689,22.3615828 54.4374965,21.306352 L54.4374965,21.306352 Z M47.6716047,11.2351047 L44.9249009,11.2351047 L44.9249009,4.25195953 L47.8423038,4.25195953 C50.1079464,4.25195953 51.1011049,5.44685327 51.1011049,7.74353214 C51.1011049,9.91606621 49.8751749,11.2351047 47.6716047,11.2351047 L47.6716047,11.2351047 Z" id="Shape"></path>
                        <path d="M66.1536623,17.5975259 L66.0915899,17.5975259 L62.2896553,1.66043675 L56.9203926,1.66043675 L56.8893564,1.66043675 L56.8893564,23.168524 L60.1481575,23.168524 L60.1481575,5.27615416 L60.2102299,5.27615416 L64.555298,23.168524 L67.4416647,23.168524 L71.7867328,5.27615416 L71.8488052,5.27615416 L71.8488052,23.168524 L75.1076063,23.168524 L75.1076063,1.66043675 L69.8935246,1.66043675 L66.1536623,17.5975259 Z" id="Shape"></path>
                        <path d="M91.0757317,1.36559284 C86.7306636,1.36559284 84.2788037,4.73302065 84.2788037,12.352408 C84.2788037,19.9717953 86.7151455,23.3392231 91.0757317,23.3392231 C95.4207998,23.3392231 97.8726597,19.9717953 97.8726597,12.352408 C97.8726597,4.73302065 95.4363179,1.36559284 91.0757317,1.36559284 L91.0757317,1.36559284 Z M91.0757317,21.7408588 C88.034184,21.7408588 86.1875301,19.2424446 86.1875301,12.352408 C86.1875301,5.46237137 88.034184,2.96395719 91.0757317,2.96395719 C94.1172794,2.96395719 95.9639334,5.46237137 95.9639334,12.352408 C95.9639334,19.2424446 94.1172794,21.7408588 91.0757317,21.7408588 L91.0757317,21.7408588 Z" id="Shape"></path>
                        <path d="M105.802409,6.81244611 C103.769538,6.81244611 102.466017,7.97630365 101.891848,9.43500509 L101.829775,9.43500509 L101.829775,7.16936242 L100.215893,7.16936242 L100.215893,28.2429429 L102.000474,28.2429429 L102.000474,20.6235555 L102.062547,20.6235555 C102.450499,22.2995104 103.785056,23.3702593 105.755855,23.3702593 C109.247427,23.3702593 110.814756,20.5770012 110.814756,15.1146299 C110.830274,9.6212223 109.3095,6.81244611 105.802409,6.81244611 L105.802409,6.81244611 Z M105.476529,21.8650036 C103.660911,21.8650036 102.015993,20.9339175 102.015993,15.0991118 C102.015993,12.352408 102.248764,10.816116 103.024669,9.6988128 C103.614357,8.82979917 104.514407,8.30218376 105.523083,8.30218376 C107.245592,8.30218376 108.921547,9.34189649 108.921547,15.0991118 C108.921547,20.9339175 107.261111,21.8650036 105.476529,21.8650036 L105.476529,21.8650036 Z" id="Shape"></path>
                        <path d="M117.751346,6.81244611 C114.259774,6.81244611 112.304493,9.5901861 112.304493,15.0680756 C112.304493,21.0270261 114.275292,23.3547412 117.611684,23.3547412 C120.591159,23.3547412 122.437813,21.1201348 122.70162,17.7527069 L120.917039,17.7527069 C120.622195,20.5304469 119.458337,21.8650036 117.580647,21.8650036 C115.827102,21.8650036 114.21322,20.4683745 114.21322,15.906053 L114.21322,15.1611842 L122.856801,15.1611842 L122.856801,14.5094239 C122.841283,9.23326978 121.258437,6.81244611 117.751346,6.81244611 L117.751346,6.81244611 Z M114.197701,13.6714465 C114.259774,9.7453671 115.361559,8.30218376 117.565129,8.30218376 C119.768699,8.30218376 120.870485,9.729849 120.932557,13.6714465 L114.197701,13.6714465 L114.197701,13.6714465 Z" id="Shape"></path>
                        <path d="M126.798399,9.6522585 L126.736327,9.6522585 L126.736327,7.18488052 L124.951745,7.18488052 L124.951745,22.9978249 L126.736327,22.9978249 L126.736327,13.1127949 C126.736327,10.040211 128.582981,8.61254577 130.553779,8.61254577 C130.817587,8.61254577 131.112431,8.64358197 131.422793,8.70565437 L131.422793,6.92107281 C131.221058,6.85900041 131.003804,6.82796421 130.802069,6.82796421 C128.955415,6.81244611 127.481195,7.89871314 126.798399,9.6522585 L126.798399,9.6522585 Z" id="Shape"></path>
                        <path d="M141.587149,20.3752659 L141.587149,11.0178513 C141.587149,8.51943716 140.392255,6.81244611 137.117936,6.81244611 C133.781544,6.81244611 132.229734,8.62806387 132.229734,11.8713469 L134.014316,11.8713469 C134.014316,9.574668 134.945402,8.30218376 137.055863,8.30218376 C138.669746,8.30218376 139.802567,9.01601638 139.802567,11.0488875 C139.802567,12.8955415 139.53876,13.1903854 138.281793,13.5473017 L134.914366,14.4939058 C132.679759,15.1146299 131.733155,16.7905847 131.733155,18.8700102 C131.733155,21.616714 132.990121,23.3392231 135.752343,23.3392231 C137.505888,23.3392231 139.119771,22.7495353 139.833603,20.6545917 L139.895676,20.6545917 L139.895676,21.1977253 C139.895676,22.8426439 140.795726,23.168524 142.192355,23.168524 C142.425126,23.168524 142.704452,23.1064516 143.030332,22.9823068 L143.030332,21.6787864 L142.518235,21.6787864 C141.881993,21.6787864 141.587149,21.2753158 141.587149,20.3752659 L141.587149,20.3752659 Z M139.787049,17.3957906 C139.787049,20.2200849 138.297311,21.8650036 136.124777,21.8650036 C134.572967,21.8650036 133.626363,20.6080374 133.626363,18.7613835 C133.626363,16.8836933 134.557449,15.9681254 136.342031,15.4870643 L137.831768,15.0991118 C138.545601,14.9128946 139.554278,14.5870145 139.740495,14.059399 L139.802567,14.059399 L139.802567,17.3957906 L139.787049,17.3957906 Z" id="Shape"></path>
                        <path d="M147.002966,2.79325809 L145.218384,2.79325809 L145.218384,7.16936242 L143.04585,7.16936242 L143.04585,8.65910007 L145.218384,8.65910007 L145.218384,20.390784 C145.218384,22.5012457 146.14947,23.168524 148.554776,23.168524 C149.144464,23.168524 149.594489,23.1064516 149.811742,22.9823068 L149.811742,21.4925692 C149.42379,21.616714 149.066873,21.6787864 148.709957,21.6787864 C147.546099,21.6787864 147.018484,21.2597977 147.018484,20.0028315 L147.018484,8.65910007 L149.811742,8.65910007 L149.811742,7.16936242 L147.018484,7.16936242 L147.018484,2.79325809 L147.002966,2.79325809 Z" id="Shape"></path>
                        <rect id="Rectangle-path" x="151.642878" y="1.72250915" width="1.78458156" height="3.04154769"></rect>
                        <rect id="Rectangle-path" x="151.642878" y="7.16936242" width="1.78458156" height="15.8129444"></rect>
                        <path d="M160.93822,6.81244611 C157.446647,6.81244611 155.491367,9.5901861 155.491367,15.0680756 C155.491367,20.5770012 157.462166,23.3547412 160.93822,23.3547412 C164.429793,23.3547412 166.385073,20.5770012 166.385073,15.0680756 C166.385073,9.5901861 164.414275,6.81244611 160.93822,6.81244611 L160.93822,6.81244611 Z M160.93822,21.8650036 C158.936385,21.8650036 157.400093,20.1424944 157.400093,15.0680756 C157.400093,10.040211 158.951903,8.30218376 160.93822,8.30218376 C162.940055,8.30218376 164.476347,10.0246929 164.476347,15.0680756 C164.476347,20.1424944 162.924537,21.8650036 160.93822,21.8650036 L160.93822,21.8650036 Z" id="Shape"></path>
                        <path d="M174.035497,6.81244611 C172.421614,6.81244611 170.885322,7.61938734 169.985273,9.37293269 L169.9232,9.37293269 L169.9232,7.16936242 L168.309318,7.16936242 L168.309318,22.9823068 L170.093899,22.9823068 L170.093899,12.352408 C170.093899,9.91606621 171.490528,8.30218376 173.585472,8.30218376 C175.40109,8.30218376 176.30114,9.37293269 176.30114,11.5454668 L176.30114,22.9823068 L178.085721,22.9823068 L178.085721,11.0333694 C178.101239,8.06941225 176.456321,6.81244611 174.035497,6.81244611 L174.035497,6.81244611 Z" id="Shape"></path>
                        <path d="M186.853448,14.6180507 L184.261925,13.6404103 C182.477344,12.9576139 182.120427,12.0886003 182.120427,10.9868151 C182.120427,9.40396889 182.927368,8.30218376 185.006794,8.30218376 C186.651713,8.30218376 187.598317,9.17119738 187.598317,11.2195866 L187.598317,11.6696116 L189.382898,11.6696116 L189.382898,11.2195866 C189.382898,8.33321996 188.017305,6.81244611 185.03783,6.81244611 C182.353199,6.81244611 180.335846,8.11596655 180.335846,11.3747677 C180.335846,12.9576139 181.142787,14.2611343 183.377393,15.130148 L185.875808,16.1077883 C187.458654,16.7285123 188.017305,17.6285621 188.017305,19.0251912 C188.017305,20.7787365 186.791375,21.8494855 184.882649,21.8494855 C182.849778,21.8494855 181.841101,20.6545917 181.841101,18.3268767 L181.841101,17.907888 L180.05652,17.907888 L180.05652,18.4199853 C180.05652,21.9891484 181.670402,23.3392231 184.913685,23.3392231 C188.250077,23.3392231 189.801887,21.3373882 189.801887,18.6372387 C189.801887,16.9147295 188.994946,15.4249919 186.853448,14.6180507 L186.853448,14.6180507 Z" id="Shape"></path>
                    </g>
                </g>
            </g>
        </g>
    </g>
</svg>