<?xml version="1.0" encoding="UTF-8" standalone="no"?>
<svg width="85px" height="28px" viewBox="0 0 85 28" version="1.1" xmlns="http://www.w3.org/2000/svg" xmlns:xlink="http://www.w3.org/1999/xlink" xmlns:sketch="http://www.bohemiancoding.com/sketch/ns">
    <!-- Generator: Sketch 3.3.3 (12081) - http://www.bohemiancoding.com/sketch -->
    <title>airfiber</title>
    <desc>Created with Sketch.</desc>
    <defs></defs>
    <g id="Page-1" stroke="none" stroke-width="1" fill="none" fill-rule="evenodd" sketch:type="MSPage">
        <g id="Artboard-1" sketch:type="MSArtboardGroup" transform="translate(-231.000000, -273.000000)" fill="#D8D8D8">
            <g id="airfiber-+-Rectangle" sketch:type="MSLayerGroup" transform="translate(211.000000, 260.000000)">
                <g id="airfiber" transform="translate(20.000000, 13.000000)" sketch:type="MSShapeGroup">
                    <path d="M26.6003184,2.43217258 L38.1964158,2.43217258 L38.1964158,5.7045924 L30.0568475,5.7045924 L30.0568475,12.4787099 L37.6946616,12.4787099 L37.6946616,15.7719731 L30.0568475,15.7719731 L30.0568475,26.8398389 L26.5817349,26.8398389 L26.5817349,2.43217258 L26.6003184,2.43217258 L26.6003184,2.43217258 Z M39.9060969,2.43217258 L43.1953745,2.43217258 L43.176791,5.85049647 L39.8875134,5.85049647 L39.9060969,2.43217258 L39.9060969,2.43217258 Z M39.8875134,8.45592627 L43.176791,8.45592627 L43.176791,26.8398389 L39.8875134,26.8398389 L39.8875134,8.45592627 L39.8875134,8.45592627 Z M45.7413125,2.43217258 L49.0305902,2.43217258 L49.0305902,10.6028004 L49.0863406,10.6028004 C49.6995958,8.95616879 51.037607,7.97652718 52.8030385,7.97652718 C55.2932261,7.97652718 57.8577477,9.24797692 57.8577477,17.3977613 C57.8577477,23.7133231 56.3339015,27.2983945 52.5057027,27.2983945 C50.164183,27.2983945 49.3465095,25.7559801 48.9190892,24.5679041 L48.8633388,24.5679041 L48.8633388,26.8189955 L45.759896,26.8189955 L45.759896,2.43217258 L45.7413125,2.43217258 L45.7413125,2.43217258 Z M51.6136952,24.3803132 C53.8994644,24.3803132 54.3826351,21.7540399 54.3826351,17.5853523 C54.3826351,12.6246139 53.7136295,10.915452 51.8181136,10.915452 C49.290759,10.915452 48.8261718,13.437508 48.8261718,17.856317 C48.8447553,21.7748834 49.365093,24.3803132 51.6136952,24.3803132 L51.6136952,24.3803132 L51.6136952,24.3803132 Z M62.466453,18.1272817 L62.466453,19.190297 C62.466453,21.6498227 62.7452054,24.7971819 65.2168095,24.7971819 C67.5583291,24.7971819 67.8370815,21.7957268 67.8370815,20.6910246 L70.9405242,20.6910246 C70.9405242,24.7554951 68.7476725,27.319238 65.1796425,27.319238 C62.50362,27.319238 59.1771754,26.4229701 59.1771754,17.9188473 C59.1771754,13.104013 60.0877664,7.97652718 65.235393,7.97652718 C69.8069314,7.97652718 71.0148582,11.0613561 71.0148582,16.1679985 L71.0148582,18.1064382 L62.466453,18.1064382 L62.466453,18.1272817 L62.466453,18.1272817 Z M67.7255806,15.5843822 L67.7255806,14.5838971 C67.7255806,12.2702755 67.0565749,10.4777398 65.198226,10.4777398 C63.0982917,10.4777398 62.4478696,12.7913614 62.4478696,15.1883569 L62.4478696,15.5635387 L67.7255806,15.5635387 L67.7255806,15.5843822 L67.7255806,15.5843822 Z M72.9661246,8.45592627 L76.2554022,8.45592627 L76.2554022,11.3323208 L76.3111527,11.3323208 C77.0359088,9.2896638 78.2624191,7.97652718 80.120768,7.97652718 C80.4924378,7.97652718 80.6968562,8.0390575 80.9198581,8.12243125 L80.9198581,11.8742502 C80.6782727,11.8117198 80.1021845,11.6658158 79.5446798,11.6658158 C78.0580007,11.6658158 76.2554022,12.4161796 76.2554022,15.8345034 L76.2554022,26.8398389 L72.9661246,26.8398389 L72.9661246,8.45592627 L72.9661246,8.45592627 Z M10.9158533,15.1258265 C11.4176075,12.4787099 9.72651,11.436538 7.36640684,11.436538 C3.83554385,11.436538 2.34886469,13.1873868 1.75419303,16.3764328 L4.28154759,16.3764328 C4.56029993,14.9173922 5.08063764,13.5000383 6.86465263,13.5000383 C8.27699782,13.5000383 8.53716668,14.3546193 8.27699782,15.7302863 C8.03541246,17.0434229 7.34782335,17.3560744 6.34431492,17.6478826 L4.13287968,18.2940292 C2.20019678,18.9610192 0.769268088,19.6696961 0.137429447,23.0046462 C-0.401491747,25.8810407 0.676350641,27.2150208 2.81345193,27.2150208 C4.37446504,27.2150208 5.58239185,26.4855004 6.56731679,25.0056163 L6.62306726,25.0056163 C6.41864888,26.464657 7.31065637,26.985743 8.51858319,26.985743 C9.03892089,26.985743 9.54067511,26.798152 9.89376141,26.6314045 L10.2654312,24.6721213 C10.1725137,24.7346516 9.98667885,24.7554951 9.81942745,24.7554951 C9.42917417,24.7554951 9.22475579,24.2552525 9.31767323,23.6924797 C9.31767323,23.6924797 10.9158533,15.1258265 10.9158533,15.1258265 L10.9158533,15.1258265 Z M7.18057195,21.4205449 C6.75315169,23.6299494 5.71247628,24.9847729 4.0957127,24.9847729 C2.98070333,24.9847729 2.62761703,23.9842878 2.85061891,22.7336815 C3.07362078,21.6081359 3.57537499,20.7327115 4.41163202,20.3158427 C5.28505602,19.8989739 6.84606914,19.5446355 7.64515918,18.9193323 L7.18057195,21.4205449 L7.18057195,21.4205449 Z M13.7777107,11.8325633 L10.9344368,26.8398389 L13.6290428,26.8398389 L16.4537332,11.8325633 L13.7777107,11.8325633 L13.7777107,11.8325633 Z M24.4632171,11.436538 C22.939371,11.436538 21.7500277,12.4995533 20.8394367,14.1670284 L20.7836862,14.1670284 L21.22969,11.8325633 L18.5536675,11.8325633 L15.7103936,26.8398389 L18.4049996,26.8398389 L20.0960971,17.856317 C20.6350183,15.0632962 22.2146149,14.4588365 23.4225417,14.4588365 C23.8685455,14.4588365 24.3517162,14.5630537 24.5189676,14.625584 L25.0950558,11.5615986 C24.9278044,11.4990683 24.760553,11.436538 24.4632171,11.436538 L24.4632171,11.436538 L24.4632171,11.436538 Z M18.7952528,3.12000605 C20.1146806,4.09964765 21.2668569,5.80880959 21.2854404,9.41472443 L22.6420352,9.41472443 C22.6606187,5.4336277 21.22969,3.05747573 19.5385924,1.84855631 C17.8660784,0.639636881 16.0448964,0.493732812 15.1714724,0.493732812 L14.8183861,0.493732812 L14.8183861,2.01530381 C14.8741366,2.01530381 14.9856375,1.99446037 15.1714724,1.99446037 C15.8962285,1.99446037 17.4758251,2.14036444 18.7952528,3.12000605 L18.7952528,3.12000605 L18.7952528,3.12000605 Z M18.0704968,4.09964765 C16.8811534,3.24506668 15.6174762,3.14084948 15.004221,3.14084948 L14.7998026,3.14084948 L14.7998026,4.66242048 L15.004221,4.66242048 C15.4688082,4.66242048 16.4909002,4.76663768 17.3271572,5.37109739 C18.1448307,5.99640054 18.8881703,7.03857246 18.9067538,9.41472443 L20.2633485,9.41472443 C20.3005155,6.64254713 19.2784236,4.95422862 18.0704968,4.09964765 L18.0704968,4.09964765 L18.0704968,4.09964765 Z M14.9113036,7.35122403 C15.1157219,7.35122403 15.5617257,7.39291091 15.8962285,7.64303217 C16.2121478,7.89315343 16.5280671,8.24749188 16.5466506,9.35219412 L16.5466506,9.39388099 L17.9032454,9.39388099 L17.9032454,9.33135068 C17.9218288,7.87230999 17.3457407,6.85098151 16.6395681,6.37158243 C15.951979,5.87133991 15.2458064,5.82965303 14.9113036,5.82965303 L14.8183861,5.82965303 L14.8183861,7.35122403 L14.9113036,7.35122403 L14.9113036,7.35122403 Z M82.74104,6.60086025 C81.6817811,6.60086025 80.9198581,5.7045924 80.9198581,4.51651642 C80.9198581,3.26591011 81.7561151,2.43217258 82.74104,2.43217258 C83.7073815,2.43217258 84.562222,3.26591011 84.562222,4.51651642 C84.562222,5.76712272 83.725965,6.60086025 82.74104,6.60086025 L82.74104,6.60086025 Z M82.74104,2.78651103 C81.94195,2.78651103 81.3101113,3.49518794 81.3101113,4.51651642 C81.3101113,5.45447114 81.8490325,6.2465218 82.74104,6.2465218 C83.5401301,6.2465218 84.1719687,5.5378449 84.1719687,4.51651642 C84.1719687,3.49518794 83.5401301,2.78651103 82.74104,2.78651103 L82.74104,2.78651103 Z M82.3879537,5.7045924 L82.0348674,5.7045924 L82.0348674,3.39097074 L82.815374,3.39097074 C83.3171282,3.39097074 83.5587136,3.57856169 83.5587136,4.05796077 C83.5587136,4.47482954 83.3357117,4.64157705 83.0197924,4.68326392 L83.5958805,5.7045924 L83.2056273,5.7045924 L82.6667061,4.7249508 L82.3507867,4.7249508 L82.3507867,5.7045924 L82.3879537,5.7045924 L82.3879537,5.7045924 Z M82.7596235,4.39145579 C83.0197924,4.39145579 83.2427942,4.37061235 83.2427942,4.03711733 C83.2427942,3.76615263 83.0012089,3.72446576 82.7967905,3.72446576 L82.3879537,3.72446576 L82.3879537,4.39145579 L82.7596235,4.39145579 L82.7596235,4.39145579 Z" id="Shape"></path>
                </g>
            </g>
        </g>
    </g>
</svg>