<?xml version="1.0" encoding="UTF-8" standalone="no"?>
<svg width="85px" height="27px" viewBox="0 0 85 27" version="1.1" xmlns="http://www.w3.org/2000/svg" xmlns:xlink="http://www.w3.org/1999/xlink" xmlns:sketch="http://www.bohemiancoding.com/sketch/ns">
    <!-- Generator: Sketch 3.3.3 (12081) - http://www.bohemiancoding.com/sketch -->
    <title>airmax</title>
    <desc>Created with Sketch.</desc>
    <defs></defs>
    <g id="Page-1" stroke="none" stroke-width="1" fill="none" fill-rule="evenodd" sketch:type="MSPage">
        <g id="Artboard-1" sketch:type="MSArtboardGroup" transform="translate(-374.000000, -273.000000)" fill="#D8D8D8">
            <g id="airmax-+-Rectangle" sketch:type="MSLayerGroup" transform="translate(353.000000, 260.000000)">
                <g id="airmax" transform="translate(21.000000, 13.000000)" sketch:type="MSShapeGroup">
                    <g id="Group">
                        <path d="M53.7707807,2.45107604 L59.6648915,2.45107604 L58.6344525,26.3058239 L54.492088,26.3058239 L54.8218284,21.1907708 L49.6696337,21.1907708 L47.5881471,26.3058239 L43.1572596,26.3058239 L53.7707807,2.45107604 L53.7707807,2.45107604 Z M51.1122482,17.6102336 L55.0691338,17.6102336 L55.8110498,6.05486349 L51.1122482,17.6102336 L51.1122482,17.6102336 Z M26.0519731,26.3290742 C23.9292689,25.7943186 24.4857059,23.7947978 24.4857059,23.7947978 L29.3905953,5.7758606 L29.4112041,5.68285963 C29.885206,3.75308958 27.0411945,2.89283064 25.9283205,2.7068287 C25.4749273,2.63707798 25.7016239,2.45107604 25.7016239,2.45107604 L36.686103,2.45107604 L34.728269,20.0747592 L34.7076603,20.0747592 L42.1062119,2.45107604 L48.5773684,2.45107604 L42.4565611,26.3290742 L38.4996756,26.3290742 L44.0022195,6.19436494 L35.3671412,26.3290742 L30.8744274,26.3290742 L33.0177404,5.75261035 L33.0383492,5.75261035 L27.8243281,26.3290742 L26.0519731,26.3290742 L26.0519731,26.3290742 Z" id="Shape"></path>
                        <path d="M66.2390919,5.05510311 C66.0330042,3.5438374 63.7042121,2.84633015 62.7149908,2.7068287 C62.2615976,2.63707798 62.4882942,2.45107604 62.4882942,2.45107604 L69.9486721,2.45107604 L71.1233725,10.332908 L75.8633917,2.45107604 L80.6034108,2.45107604 L72.6484222,14.5179514 L74.8329527,26.3058239 L70.711197,26.3058239 L69.3716263,17.7962355 L64.1163877,26.3290742 L59.2527159,26.3290742 L67.8877943,13.5646915 L66.2597007,5.10160359 L66.2597007,5.05510311 L66.2390919,5.05510311 L66.2390919,5.05510311 Z M11.9555684,14.9132055 C12.6356581,12.355679 11.0899997,11.3326683 8.78181644,11.3326683 C5.36075915,11.3326683 3.79449195,13.029936 2.9701408,16.1454684 L5.42258548,16.1454684 C5.81415228,14.7272036 6.41180687,13.3554394 8.14294429,13.3554394 C9.5031237,13.3554394 9.68860271,14.1924481 9.33825347,15.5409621 C8.98790423,16.8197254 8.30781452,17.1219785 7.31859314,17.4009814 L5.13406258,18.0287379 C3.19683736,18.6797447 1.77483162,19.3540017 0.909262908,22.6090355 C0.167346869,25.3990645 1.13595948,26.701078 3.17622858,26.701078 C4.68066944,26.701078 5.91719617,26.0035708 6.98885268,24.5620558 L7.03007023,24.5620558 C6.72093855,25.9803206 7.56589848,26.4918259 8.69938132,26.4918259 C9.21460079,26.4918259 9.70921149,26.3058239 10.0389519,26.1430722 L10.5541714,24.2598027 C10.4717363,24.3295534 10.2862573,24.3528036 10.1213871,24.3528036 C9.72982027,24.3528036 9.56495004,23.8645486 9.72982027,23.329793 C9.72982027,23.3530433 11.9555684,14.9132055 11.9555684,14.9132055 L11.9555684,14.9132055 Z M7.85442139,21.0280191 C7.27737558,23.1670413 6.16450152,24.4923051 4.59823433,24.4923051 C3.52657783,24.4923051 3.2586637,23.5157949 3.56779538,22.2835321 C3.85631829,21.1907708 4.4333641,20.3305118 5.25771525,19.9120075 C6.12328396,19.4935031 7.68955116,19.1447495 8.47268476,18.5634935 C8.49329353,18.5634935 7.85442139,21.0280191 7.85442139,21.0280191 L7.85442139,21.0280191 Z M14.9438413,11.7046722 L11.0899997,26.3290742 L13.6867058,26.3290742 L17.5611562,11.7046722 L14.9438413,11.7046722 L14.9438413,11.7046722 Z M25.3306659,11.3326683 C23.8468338,11.3326683 22.6309158,12.355679 21.6210857,13.9831959 L21.5592593,13.9831959 L22.1569139,11.7046722 L19.5602078,11.7046722 L15.6857574,26.3290742 L18.2824635,26.3290742 L20.5906467,17.5869833 C21.3325628,14.8667051 22.8782212,14.285449 24.0735304,14.285449 C24.5063147,14.285449 24.9390991,14.37845 25.1039693,14.4482007 L25.8871029,11.4721698 C25.8046678,11.3791688 25.6397976,11.3326683 25.3306659,11.3326683 L25.3306659,11.3326683 L25.3306659,11.3326683 Z M19.8693395,3.19508378 C21.1470838,4.14834368 22.2599578,5.79911084 22.2805666,9.30989732 L23.5995284,9.30989732 C23.6201372,5.42710697 22.239349,3.12533305 20.5906467,1.96282097 C18.9625532,0.777058648 17.210807,0.637557199 16.3658471,0.637557199 L16.0154978,0.637557199 L16.0154978,2.12557266 C16.0773242,2.12557266 16.1803681,2.10232242 16.3658471,2.10232242 C17.0459368,2.10232242 18.5709864,2.24182387 19.8693395,3.19508378 L19.8693395,3.19508378 L19.8693395,3.19508378 Z M19.168641,4.14834368 C18.0145494,3.31133498 16.7780226,3.21833402 16.2009768,3.19508378 L15.994889,3.19508378 L15.994889,4.68309924 L16.2009768,4.68309924 C16.65437,4.68309924 17.6435914,4.77610021 18.4679425,5.38060649 C19.2716849,5.98511277 19.9723834,7.0081234 19.9929921,9.30989732 L21.311954,9.30989732 C21.311954,6.65936978 20.3227326,5.00860262 19.168641,4.14834368 L19.168641,4.14834368 L19.168641,4.14834368 Z M16.0979329,7.33362678 C16.3040207,7.33362678 16.7368051,7.38012727 17.0459368,7.61262968 C17.3550685,7.8451321 17.6435914,8.21713597 17.6642001,9.28664708 L17.6642001,9.33314756 L18.983162,9.33314756 L18.983162,9.26339684 C19.0037708,7.82188186 18.426725,6.86862195 17.767244,6.35711664 C17.0871543,5.8921118 16.4276734,5.84561132 16.0979329,5.82236108 L16.0154978,5.82236108 L16.0154978,7.31037654 C16.0154978,7.33362678 16.0361066,7.33362678 16.0979329,7.33362678 L16.0979329,7.33362678 L16.0979329,7.33362678 Z M83.1588994,6.54311857 C82.1284605,6.54311857 81.3865444,5.65960939 81.3865444,4.49709731 C81.3865444,3.28808474 82.2108956,2.45107604 83.1588994,2.45107604 C84.1069032,2.45107604 84.9312544,3.24158426 84.9312544,4.49709731 C84.8900368,5.72936011 84.1069032,6.54311857 83.1588994,6.54311857 L83.1588994,6.54311857 Z M83.1588994,2.79982967 C82.3757658,2.79982967 81.7781112,3.49733692 81.7781112,4.47384707 C81.7781112,5.40385673 82.3139395,6.14786446 83.1588994,6.14786446 C83.9214242,6.14786446 84.5396876,5.47360745 84.5396876,4.47384707 C84.5190788,3.49733692 83.9214242,2.79982967 83.1588994,2.79982967 L83.1588994,2.79982967 Z M82.7879414,5.68285963 L82.4582009,5.68285963 L82.4582009,3.45083643 L83.200117,3.45083643 C83.6741189,3.45083643 83.9214242,3.63683837 83.9214242,4.07859296 C83.9214242,4.49709731 83.6947277,4.659849 83.385596,4.70634948 L83.942033,5.68285963 L83.571075,5.68285963 L83.0558555,4.70634948 L82.7467238,4.70634948 L82.7879414,5.68285963 L82.7879414,5.68285963 Z M83.1588994,4.3808461 C83.385596,4.3808461 83.6122925,4.35759586 83.6122925,4.03209247 C83.6122925,3.77633982 83.385596,3.72983933 83.1795082,3.72983933 L82.7879414,3.72983933 L82.7879414,4.3808461 L83.1588994,4.3808461 L83.1588994,4.3808461 Z" id="Shape"></path>
                    </g>
                </g>
            </g>
        </g>
    </g>
</svg>