<?xml version="1.0" encoding="UTF-8" standalone="no"?>
<svg width="116px" height="24px" viewBox="0 0 116 24" version="1.1" xmlns="http://www.w3.org/2000/svg" xmlns:xlink="http://www.w3.org/1999/xlink" xmlns:sketch="http://www.bohemiancoding.com/sketch/ns">
    <!-- Generator: Sketch 3.3.3 (12081) - http://www.bohemiancoding.com/sketch -->
    <title>EdgeSwitch</title>
    <desc>Created with Sketch.</desc>
    <defs></defs>
    <g id="Page-1" stroke="none" stroke-width="1" fill="none" fill-rule="evenodd" sketch:type="MSPage">
        <g id="Artboard-1" sketch:type="MSArtboardGroup" transform="translate(-854.000000, -279.000000)" fill="#D8D8D8">
            <g id="EdgeSwitch-+-Rectangle" sketch:type="MSLayerGroup" transform="translate(835.000000, 260.000000)">
                <g id="EdgeSwitch" transform="translate(19.000000, 19.000000)" sketch:type="MSShapeGroup">
                    <g id="Group">
                        <g transform="translate(0.000000, 0.393772)" id="Shape">
                            <g>
                                <path d="M3.89376865,0.09844306 L13.783941,0.09844306 L13.2388134,2.57920817 L6.26896753,2.57920817 L5.19818115,7.69824729 L11.7591813,7.69824729 L11.2529914,10.1790124 L4.69199123,10.1790124 L3.44598526,16.085596 L10.6105196,16.085596 L10.1043297,18.5663611 L0,18.5663611 L3.89376865,0.09844306 L3.89376865,0.09844306 Z"></path>
                                <path d="M18.9042468,16.8731405 L18.8458403,16.8731405 C18.3007127,17.7788166 17.3662082,18.9404447 15.3803862,18.9404447 C12.1485582,18.9404447 11.428211,16.2234163 12.4600597,11.4390836 C13.7450033,5.2568594 16.1007334,4.29211741 18.2033685,4.29211741 C19.6830005,4.29211741 20.6564427,5.04028467 20.9095377,6.28066723 L20.9679442,6.28066723 L22.2723567,0.09844306 L25.0369324,0.09844306 L21.1431638,18.5860497 L18.5343388,18.5860497 L18.9042468,16.8731405 L18.9042468,16.8731405 Z M18.5732765,6.51693057 C16.9768313,6.51693057 16.1396711,7.81637896 15.3803862,11.5572152 C14.7184455,14.7073932 14.6795078,16.7156316 16.6069233,16.7156316 C18.4954011,16.7156316 19.3520302,14.7467704 19.994502,11.77379 C20.6564427,8.42672593 20.6953804,6.51693057 18.5732765,6.51693057 L18.5732765,6.51693057 Z"></path>
                                <path d="M25.6794043,19.7870551 C25.5041847,20.6336654 26.1077188,21.4408985 27.3342559,21.4408985 C28.7749503,21.4408985 29.8652056,20.4367792 30.1961759,18.8223131 L30.682897,16.5778113 L30.6244905,16.5778113 C29.8652056,17.7985052 28.4245112,18.4876067 27.1006298,18.4876067 C23.8688018,18.4876067 23.6351757,15.2783629 24.4333983,11.4784608 C25.095339,8.42672593 26.3997515,4.31180603 30.312989,4.31180603 C31.928903,4.31180603 32.8828763,5.37499107 32.9023451,6.37911029 L32.9607516,6.37911029 L33.3111908,4.66620104 L35.9200158,4.66620104 L33.1943778,17.9166369 C32.4740306,21.3030782 30.6050216,23.3506938 26.8864725,23.3506938 C22.7980155,23.3506938 22.8369532,20.9093059 23.0705793,19.7870551 L25.6794043,19.7870551 L25.6794043,19.7870551 Z M28.3661046,16.2627935 C30.5076774,16.2627935 31.3448377,13.5260764 31.7926211,11.3209519 C32.2598733,9.03707291 32.5129683,6.53661918 30.5855528,6.53661918 C28.5802619,6.53661918 27.820977,8.60392344 27.2758494,11.2028202 C26.7891283,13.5654537 26.3218761,16.2627935 28.3661046,16.2627935 L28.3661046,16.2627935 Z"></path>
                                <path d="M38.6067162,11.9903647 L38.4509654,12.7975978 C38.0421197,14.6680159 37.7890248,17.050338 39.8527222,17.050338 C41.8190753,17.050338 42.5199537,14.766459 42.6951733,13.9395373 L45.3039983,13.9395373 C44.6615265,17.0306494 42.4031406,18.9601334 39.4244076,18.9601334 C37.1660218,18.9601334 34.537728,18.2907205 35.8616093,11.8328558 C36.6208942,8.19046259 38.2173393,4.29211741 42.5394225,4.29211741 C46.3747847,4.29211741 46.9199123,6.61537363 46.1022209,10.5137188 L45.7907194,11.9903647 L38.6067162,11.9903647 L38.6067162,11.9903647 Z M43.4544582,10.0608807 L43.6102089,9.31271347 C43.9995858,7.56042701 43.7075531,6.20191278 42.1500457,6.20191278 C40.3783809,6.20191278 39.4633453,7.95419925 39.0739684,9.76555155 L39.0155619,10.0411921 L43.4544582,10.0411921 L43.4544582,10.0608807 Z"></path>
                            </g>
                            <path d="M111.459128,0.39377224 L110.875062,0.39377224 L110.875062,0.078754448 L112.43257,0.078754448 L112.43257,0.39377224 L111.848505,0.39377224 L111.848505,2.02792704 L111.439659,2.02792704 L111.439659,0.39377224 L111.459128,0.39377224 Z M114.632549,0.4922153 L114.632549,0.4922153 L114.048484,2.04761565 L113.77592,2.04761565 L113.211324,0.4922153 L113.211324,2.04761565 L112.841416,2.04761565 L112.841416,0.078754448 L113.406012,0.078754448 L113.931671,1.4766459 L114.45733,0.078754448 L115.021926,0.078754448 L115.021926,2.04761565 L114.652018,2.04761565 L114.652018,0.4922153 L114.632549,0.4922153 Z"></path>
                        </g>
                        <g transform="translate(47.893354, 0.000000)" id="Shape">
                            <path d="M2.93979533,13.2307473 L2.93979533,13.7032739 C2.93979533,15.9477757 3.9132375,17.0897152 5.9379972,17.0897152 C7.78753731,17.0897152 8.70257294,15.7705782 8.70257294,14.3923754 C8.70257294,12.4432028 7.72913078,11.5965925 6.09374794,11.1043772 L4.08845709,10.4152757 C1.42122556,9.37177931 0.272563806,7.97388786 0.272563806,5.33561385 C0.272563806,1.9688612 2.53094962,0.09844306 5.95746604,0.09844306 C10.6494573,0.09844306 11.1361783,3.05173486 11.1361783,4.96153022 L11.1361783,5.37499107 L8.21585186,5.37499107 L8.21585186,4.98121883 C8.21585186,3.30768681 7.47603581,2.32325622 5.66543339,2.32325622 C4.41942742,2.32325622 3.21235914,3.01235764 3.21235914,4.98121883 C3.21235914,6.55630779 4.01058171,7.36354089 5.95746604,8.11170814 L7.92381921,8.84018679 C10.5131754,9.76555155 11.6423683,11.2028202 11.6423683,13.7229626 C11.6423683,17.660685 9.28663824,19.2948398 5.60702686,19.2948398 C1.07078638,19.2948398 0.0584065298,16.2431049 0.0584065298,13.6442081 L0.0584065298,13.2110586 L2.93979533,13.2110586 L2.93979533,13.2307473 Z"></path>
                            <path d="M12.4016532,5.04028467 L15.2635731,5.04028467 L17.1909886,16.0068416 L17.2493951,16.0068416 L19.2936237,5.04028467 L22.4086386,5.04028467 L24.4528671,16.0068416 L24.5112737,16.0068416 L26.3997515,5.04028467 L29.1643272,5.04028467 L26.0103746,18.9601334 L22.9148285,18.9601334 L20.7732558,8.15108537 L20.7148492,8.15108537 L18.7484961,18.9601334 L15.5166681,18.9601334 L12.4016532,5.04028467 L12.4016532,5.04028467 Z"></path>
                            <path d="M30.2935201,0.275640568 L33.0580959,0.275640568 L33.0580959,3.07142347 L30.2935201,3.07142347 L30.2935201,0.275640568 L30.2935201,0.275640568 Z M30.2935201,5.04028467 L33.0580959,5.04028467 L33.0580959,18.9601334 L30.2935201,18.9601334 L30.2935201,5.04028467 L30.2935201,5.04028467 Z"></path>
                            <path d="M34.1483511,5.04028467 L36.0368289,5.04028467 L36.0368289,1.08287366 L38.8014046,1.08287366 L38.8014046,5.04028467 L41.0597904,5.04028467 L41.0597904,7.10758893 L38.8014046,7.10758893 L38.8014046,15.4161832 C38.8014046,16.4990569 39.1129061,16.8928291 40.0474106,16.8928291 C40.4562563,16.8928291 40.7872266,16.8731405 41.0403216,16.8140746 L41.0403216,18.8813789 C40.4562563,19.0388878 39.6775026,19.1176422 38.8208735,19.1176422 C36.9518645,19.1176422 36.0368289,18.6057383 36.0368289,15.7508896 L36.0368289,7.10758893 L34.1483511,7.10758893 L34.1483511,5.04028467 L34.1483511,5.04028467 Z"></path>
                            <path d="M51.7871231,13.8804715 C51.6119035,17.2275355 50.4827106,19.3145284 47.075663,19.3145284 C43.0845501,19.3145284 41.9553572,16.3218593 41.9553572,11.9903647 C41.9553572,7.65887007 43.0845501,4.66620104 47.075663,4.66620104 C51.2030578,4.60713521 51.8065919,7.93451063 51.8065919,9.66710849 L49.0420162,9.66710849 C49.0420162,8.3676601 48.691577,6.69412808 47.075663,6.7335053 C45.0703722,6.7335053 44.719933,8.89925262 44.719933,11.9903647 C44.719933,15.0617882 45.0703722,17.2472241 47.075663,17.2472241 C48.6137016,17.2669127 49.1782981,15.9871529 49.1782981,13.8804715 L51.7871231,13.8804715 L51.7871231,13.8804715 Z"></path>
                            <path d="M53.3446305,0.472526688 L56.1092063,0.472526688 L56.1092063,6.53661918 L56.1870817,6.59568502 C56.9463666,5.4143683 58.1534348,4.68588965 59.5746604,4.68588965 C61.6772955,4.68588965 63.0011768,5.65063164 63.0011768,8.46610316 L63.0011768,18.979822 L60.2366011,18.979822 L60.2366011,9.43084515 C60.2366011,7.61949284 59.6914735,6.91070281 58.3091856,6.91070281 C57.1799927,6.91070281 56.1092063,7.81637896 56.1092063,9.62773127 L56.1092063,18.979822 L53.3446305,18.979822 L53.3446305,0.472526688 L53.3446305,0.472526688 Z"></path>
                        </g>
                    </g>
                </g>
            </g>
        </g>
    </g>
</svg>