<?xml version="1.0" encoding="UTF-8" standalone="no"?>
<svg width="110px" height="48px" viewBox="0 0 110 48" version="1.1" xmlns="http://www.w3.org/2000/svg" xmlns:xlink="http://www.w3.org/1999/xlink" xmlns:sketch="http://www.bohemiancoding.com/sketch/ns">
    <!-- Generator: Sketch 3.3.3 (12081) - http://www.bohemiancoding.com/sketch -->
    <title>edgemax</title>
    <desc>Created with Sketch.</desc>
    <defs></defs>
    <g id="Page-1" stroke="none" stroke-width="1" fill="none" fill-rule="evenodd" sketch:type="MSPage">
        <g id="Artboard-1" sketch:type="MSArtboardGroup" transform="translate(-689.000000, -260.000000)" fill="#D8D8D8">
            <g id="edgemax-+-Rectangle" sketch:type="MSLayerGroup" transform="translate(668.000000, 260.000000)">
                <g id="edgemax" transform="translate(21.000000, 0.000000)" sketch:type="MSShapeGroup">
                    <path d="M68.1940284,12.0265644 C68.2580804,12.0265644 68.3007817,12.0265644 68.3648337,12.0481561 C67.3613524,9.82421329 65.9735591,8.35597921 64.2441551,7.9889207 C58.8637872,6.82297011 52.2450806,16.47445 49.469494,29.5374149 L49.3627407,30.0556152 C49.4908447,30.2283486 49.5762473,30.401082 49.66165,30.5954071 C49.725702,30.2499403 49.789754,29.9044734 49.8751567,29.5590066 C52.5866913,16.7551418 59.0772939,7.27639534 64.3509085,8.44234592 C65.9308578,8.76622109 67.2332484,10.0617217 68.1940284,12.0265644 L68.1940284,12.0265644 Z M43.1283461,12.7822731 C44.0891261,10.4935553 46.971466,9.26282967 50.9640406,9.06850457 L51.0280926,9.00372954 C46.77931,9.13327961 43.6834634,10.4071886 42.6799821,12.8038648 C40.9505781,16.9710586 45.9893354,23.2110534 54.4441993,28.1987309 C54.4014979,28.0259975 54.3801473,27.8748557 54.4014979,27.7021223 C46.2455434,22.8655865 41.4416434,16.8199168 43.1283461,12.7822731 L43.1283461,12.7822731 Z M56.2590059,15.7835163 C56.2590059,16.7119584 55.5117326,17.4676671 54.5936539,17.4676671 C53.6755753,17.4676671 52.928302,16.7119584 52.928302,15.7835163 C52.928302,14.8550742 53.6755753,14.0993654 54.5936539,14.0993654 C55.5117326,14.0993654 56.2590059,14.8550742 56.2590059,15.7835163 L56.2590059,15.7835163 Z M52.2023793,25.5861379 C52.2023793,26.3634383 51.58321,26.9895969 50.814586,26.9895969 C50.045962,26.9895969 49.4267927,26.3634383 49.4267927,25.5861379 C49.4267927,24.8088375 50.045962,24.1826789 50.814586,24.1826789 C51.58321,24.1610872 52.2023793,24.8088375 52.2023793,25.5861379 L52.2023793,25.5861379 Z M45.4128674,19.0222679 C45.4128674,19.7995683 44.7936981,20.425727 44.0250741,20.425727 C43.2564501,20.425727 42.6372808,19.7995683 42.6372808,19.0222679 C42.6372808,18.2449675 43.2564501,17.6188089 44.0250741,17.6188089 C44.7936981,17.6188089 45.4128674,18.2449675 45.4128674,19.0222679 L45.4128674,19.0222679 Z M57.0916819,15.7835163 C57.0916819,17.1869753 55.9600966,18.3097426 54.5936539,18.3097426 C53.2058606,18.3097426 52.095626,17.1869753 52.095626,15.7835163 C52.095626,14.3800573 53.2272113,13.25729 54.5936539,13.25729 C55.9600966,13.25729 57.0916819,14.4016489 57.0916819,15.7835163 L57.0916819,15.7835163 Z M54.5936539,12.7606814 C52.9496526,12.7606814 51.58321,14.1209571 51.58321,15.805108 C51.58321,17.4892588 52.928302,18.8279428 54.5936539,18.8279428 C56.2590059,18.8279428 57.5827472,17.4676671 57.5827472,15.805108 C57.5827472,14.1209571 56.2376552,12.7606814 54.5936539,12.7606814 L54.5936539,12.7606814 Z M38.6660568,32.7329832 C39.0717195,33.9205254 39.5627848,35.021701 40.1819541,36.0796932 C40.2460061,35.7990014 40.3314088,35.5614929 40.4381621,35.3239845 C39.7976421,33.9853005 39.3279275,32.5386581 39.0290181,31.0272406 L38.6660568,32.7329832 L38.6660568,32.7329832 Z M54.2306926,7.9889207 C44.4520874,9.17646296 37.3636662,17.6619922 37.6839262,27.3350638 L38.6660568,27.3350638 C38.7087581,18.1586008 45.5623221,10.2344552 54.8925633,9.09009625 C63.7103885,8.01051237 71.802291,13.3220651 74.5992283,21.3757608 C72.0371484,12.6743147 63.5182325,6.84456178 54.2306926,7.9889207 L54.2306926,7.9889207 Z M76.542139,21.5053108 C76.0724243,17.7267673 69.6885751,15.0925826 61.0415552,15.0925826 L60.4223859,15.0925826 C58.6716312,15.1141743 56.8568246,15.2437244 55.0420179,15.4812328 C49.597598,16.1721665 44.6015421,17.7267673 40.9505781,19.8427517 C37.2782635,21.9803278 35.4207555,24.4201873 35.7196649,26.7520885 C35.7623662,27.119147 35.8691195,27.4646138 36.0185742,27.8100807 C36.1253275,27.8964474 36.2320808,28.0044058 36.3174835,28.1123642 L36.4882888,27.3134721 C36.4455875,27.1623304 36.4028862,26.9895969 36.3815355,26.8384552 C35.8050675,22.2826112 44.2385807,17.4244838 55.1487713,16.0210247 C56.9208766,15.7835163 58.6929819,15.6755579 60.4010352,15.6323745 L60.9988538,15.6323745 C69.3683151,15.6323745 75.5386577,18.1370091 75.9870216,21.7428193 C76.1791776,23.2758284 75.3465017,24.8952042 73.6384483,26.4066216 L73.5530457,26.8600469 C75.645411,25.1974877 76.7769963,23.3406034 76.542139,21.5053108 L76.542139,21.5053108 Z" id="Shape"></path>
                    <g id="Group" transform="translate(29.250413, 0.000000)">
                        <path d="M50.045962,21.8075943 L55.5971353,21.8075943 L54.6363553,41.8878545 L50.7718847,41.8878545 L51.2202486,35.5830846 L47.1422714,35.5830846 L44.2812821,41.8878545 L40.1392528,41.8878545 L50.045962,21.8075943 L50.045962,21.8075943 Z M48.4660127,32.7113915 L51.4337553,32.7113915 L52.0102233,24.8520209 L48.4660127,32.7113915 L48.4660127,32.7113915 Z" id="Shape"></path>
                        <path d="M42.1248648,21.8075943 L39.0930701,21.8075943 L32.1541036,36.5763018 L34.0116115,21.8075943 L23.741941,21.8075943 C-29.2290623,-27.2055137 23.5284344,21.9587361 23.9554477,22.0019194 C24.958929,22.1314695 27.4783076,22.8439949 27.264801,24.3338206 L21.9057837,41.8878545 L25.663501,41.8878545 L30.5741543,24.6145124 L28.5671916,41.8878545 L32.7946236,41.8878545 L40.8651755,24.9815709 L35.6983142,41.8878545 L39.4560315,41.8878545 L45.2207114,21.8075943 L42.1248648,21.8075943 L42.1248648,21.8075943 Z M70.7988097,21.8075943 L66.3365204,28.4362393 L65.2262858,21.8075943 L58.2446179,21.8075943 C-29.2290623,-27.2055137 58.0311112,21.9587361 58.4581245,22.0019194 C59.3975539,22.1314695 61.5966725,22.7360365 61.7674778,23.9883538 L63.2833751,31.1567907 L55.1914726,41.8878545 L59.7818659,41.8878545 L64.6925191,34.7194175 L65.9522084,41.8878545 L69.8380297,41.8878545 L67.7670151,31.9556828 L75.2397483,21.8075943 L70.7988097,21.8075943 Z" id="Shape"></path>
                    </g>
                    <path d="M6.14899192,21.7860027 L16.8883771,21.7860027 L16.0770518,24.4849623 L8.51891589,24.4849623 L6.87491457,30.0556152 L14.0060371,30.0556152 L13.2160625,32.7545749 L6.06358925,32.7545749 L4.14202928,39.1673031 L11.9350225,39.1673031 L11.1450479,41.8878545 L0.192155997,41.8878545 L6.14899192,21.7860027 L6.14899192,21.7860027 Z M20.8809517,40.0309702 L20.8168997,40.0309702 C20.1550291,41.0241874 19.0020931,42.2765047 16.8670264,42.2765047 C13.3655172,42.2765047 12.8317505,39.3184448 14.3903491,34.1148505 C16.3546104,27.3782471 19.0234437,26.3418466 21.2866144,26.3418466 C22.909265,26.3418466 23.8913957,27.1623304 24.0408503,28.5010144 L24.1049023,28.5010144 L26.111865,21.764411 L29.1223089,21.764411 L23.1441224,41.8662628 L20.3471851,41.8662628 L20.8809517,40.0309702 L20.8809517,40.0309702 Z M21.500121,28.7817062 C19.7707171,28.7817062 18.7245344,30.1851652 17.5502478,34.2659923 C16.5254158,37.699069 16.3119091,39.8582368 18.4042744,39.8582368 C20.4539384,39.8582368 21.564173,37.7206607 22.5463037,34.4819091 C23.613837,30.8545072 23.805993,28.7817062 21.500121,28.7817062 L21.500121,28.7817062 Z M27.9907236,43.1833551 C27.713165,44.1117972 28.3109836,44.9754643 29.6347249,44.9754643 C31.1933236,44.9754643 32.4957142,43.8742888 33.0081302,42.1253629 L33.7554035,39.6855033 L33.6913515,39.6855033 C32.7519222,41.0025957 31.1079209,41.7583044 29.6774263,41.7583044 C26.175917,41.7583044 26.2186183,38.2604526 27.4356063,34.1364422 C28.4390876,30.8113239 30.2538943,26.3418466 34.5026769,26.3418466 C36.2534315,26.3418466 37.1928608,27.4862055 37.1288088,28.5873811 L37.1928608,28.5873811 L37.7479782,26.7304968 L40.5876168,26.7304968 L36.3388342,41.1321457 C35.2499502,44.8243226 33.0081302,47.0482654 28.9728543,47.0482654 C24.510565,47.0482654 24.8094743,44.3924891 25.151085,43.1617634 L27.9907236,43.1617634 L27.9907236,43.1833551 Z M31.2573756,39.3616282 C33.6059489,39.3616282 34.7375342,36.3819767 35.4421062,33.9853005 C36.1466782,31.5022576 36.6804448,28.7817062 34.5880795,28.7817062 C32.4103116,28.7817062 31.3854796,31.0272406 30.5528036,33.8557504 C29.7841796,36.42516 29.0155556,39.3616282 31.2573756,39.3616282 L31.2573756,39.3616282 Z M42.7867354,34.7194175 L42.5518781,35.5830846 C41.9327088,37.6127023 41.4202928,40.2037036 43.6834634,40.2037036 C45.8185301,40.2037036 46.8006607,37.7206607 47.0568687,36.8354019 L49.8965073,36.8354019 C48.9143767,40.1821119 46.2882447,42.2980963 43.0215928,42.2980963 C40.5662661,42.2980963 37.7693288,41.5639793 39.8189928,34.5466841 C40.9932794,30.5738154 43.0856448,26.3634383 47.7827914,26.3634383 C51.967522,26.3634383 52.3304833,28.8896646 51.070794,33.1216334 L50.6010793,34.7194175 L42.7867354,34.7194175 L42.7867354,34.7194175 Z M48.2311554,32.6250248 L48.4660127,31.804541 C49.0424807,29.8828817 48.8716753,28.4362393 47.163622,28.4362393 C45.2420621,28.4362393 44.0677754,30.3578986 43.4913074,32.3227413 L43.4059047,32.6250248 L48.2311554,32.6250248 L48.2311554,32.6250248 Z M107.265748,26.0395631 C106.070111,26.0395631 105.216084,25.1327127 105.216084,23.9235787 C105.216084,22.6496698 106.155513,21.8075943 107.265748,21.8075943 C108.354632,21.8075943 109.315412,22.6496698 109.315412,23.9235787 C109.315412,25.1974877 108.375983,26.0395631 107.265748,26.0395631 L107.265748,26.0395631 Z M107.265748,22.1746528 C106.36902,22.1746528 105.664448,22.8871782 105.664448,23.9235787 C105.664448,24.8736125 106.283617,25.6725046 107.265748,25.6725046 C108.162476,25.6725046 108.867048,24.9599793 108.867048,23.9235787 C108.867048,22.9087699 108.162476,22.1746528 107.265748,22.1746528 L107.265748,22.1746528 Z M106.860085,25.1327127 L106.475773,25.1327127 L106.475773,22.8008115 L107.351151,22.8008115 C107.906268,22.8008115 108.205177,22.9951366 108.205177,23.4701535 C108.205177,23.9019871 107.948969,24.0747205 107.607359,24.1179038 L108.247879,25.1543044 L107.820865,25.1543044 L107.223047,24.1610872 L106.860085,24.1610872 L106.860085,25.1327127 L106.860085,25.1327127 Z M107.287099,23.8156203 C107.564657,23.8156203 107.820865,23.7940287 107.820865,23.4485618 C107.820865,23.16787 107.543307,23.1246867 107.308449,23.1246867 L106.860085,23.1246867 L106.860085,23.8156203 L107.287099,23.8156203 L107.287099,23.8156203 Z" id="Shape"></path>
                </g>
            </g>
        </g>
    </g>
</svg>