<?xml version="1.0" encoding="UTF-8" standalone="no"?>
<svg width="46px" height="40px" viewBox="0 0 46 40" version="1.1" xmlns="http://www.w3.org/2000/svg" xmlns:xlink="http://www.w3.org/1999/xlink" xmlns:sketch="http://www.bohemiancoding.com/sketch/ns">
    <!-- Generator: Sketch 3.3.3 (12081) - http://www.bohemiancoding.com/sketch -->
    <title>mfi</title>
    <desc>Created with Sketch.</desc>
    <defs></defs>
    <g id="Page-1" stroke="none" stroke-width="1" fill="none" fill-rule="evenodd" sketch:type="MSPage">
        <g id="Artboard-1" sketch:type="MSArtboardGroup" transform="translate(-822.000000, -530.000000)" fill="#D8D8D8">
            <g id="mfi-+-Rectangle" sketch:type="MSLayerGroup" transform="translate(802.000000, 525.000000)">
                <g id="mfi" transform="translate(19.000000, 4.000000)" sketch:type="MSShapeGroup">
                    <g transform="translate(0.444444, 0.544061)" id="Shape">
                        <g>
                            <path d="M6.95604533,24.5817428 L7.01190179,24.5817428 C8.14764981,22.7232461 9.6371554,22.4341466 10.7729034,22.3928467 C12.057602,22.3721967 13.6960582,22.9916956 13.6029641,24.5817428 L13.6588205,24.5817428 C14.1429098,23.8383441 14.6828556,23.2807951 15.3345143,22.9297457 C15.986173,22.5580464 16.712307,22.3928467 17.5687727,22.3928467 C20.1754075,22.3928467 20.9573979,24.1893935 20.6222592,25.9859404 L17.9597679,39.7594664 L14.4594298,39.7594664 L16.6564505,28.3193863 C16.9543516,26.791289 17.0846834,25.2838416 15.5393213,25.3664415 C13.9939593,25.4696913 13.50987,26.6260893 13.1374936,28.6084858 L11.0149481,39.7388164 L7.51460993,39.7388164 L9.7302495,28.0922367 C10.0281506,26.6054393 10.1584824,25.3251416 8.53864502,25.3664415 C6.88157005,25.4077414 6.54643129,26.7293391 6.19267371,28.6084858 L4.07012823,39.7388164 L0.569790083,39.7388164 L3.80946476,22.8058459 L7.32842173,22.8058459 L6.95604533,24.5817428 L6.95604533,24.5817428 Z M20.6781156,39.7594664 L24.9604442,17.2716556 L35.6848845,17.2716556 L35.0704635,20.5756498 L28.1256436,20.5756498 L27.0457521,26.2956899 L33.562339,26.2956899 L32.9106804,29.5996841 L26.3940934,29.5996841 L24.4391173,39.8007663 L20.6781156,39.8007663 L20.6781156,39.7594664 L20.6781156,39.7594664 Z M33.152725,39.7594664 L36.3923997,22.8264959 L39.9113567,22.8264959 L36.671682,39.7594664 L33.152725,39.7594664 L33.152725,39.7594664 Z M36.7647761,20.8027994 L37.4350536,17.2716556 L40.9540106,17.2716556 L40.2837331,20.8027994 L36.7647761,20.8027994 L36.7647761,20.8027994 Z M26.9154203,0.731034483 L19.1699912,19.5225017 L17.2336339,11.2212162 L12.9326865,18.4693535 L2.50614736,20.6169498 L14.0125781,20.6169498 L16.4702623,16.1772075 L17.2522528,20.5962998 C17.2522528,20.5962998 18.9093277,20.4517501 19.8775064,20.9266992 C20.4546898,21.2157987 20.7712097,21.5874981 20.7712097,21.5874981 L25.6679594,9.61051898 L25.3142018,15.1653593 L42.9089867,15.1653593 L27.9208366,12.8525633 L26.9154203,0.731034483 L26.9154203,0.731034483 Z M44.4729675,21.9798474 C43.2627442,21.9798474 42.3876597,20.9679992 42.3876597,19.6257515 C42.3876597,18.221554 43.3558383,17.2716556 44.4729675,17.2716556 C45.5900967,17.2716556 46.5582754,18.221554 46.5582754,19.6257515 C46.5582754,21.050599 45.5900967,21.9798474 44.4729675,21.9798474 L44.4729675,21.9798474 Z M44.4729675,17.643355 C43.5420265,17.643355 42.8345114,18.4487036 42.8345114,19.6051015 C42.8345114,20.6788997 43.4489324,21.5668481 44.4729675,21.5668481 C45.3852897,21.5668481 46.1114237,20.7821495 46.1114237,19.6051015 C46.1114237,18.4693535 45.3852897,17.643355 44.4729675,17.643355 L44.4729675,17.643355 Z M44.0447347,20.9679992 L43.6537395,20.9679992 L43.6537395,18.3454537 L44.5474428,18.3454537 C45.1060074,18.3454537 45.4039085,18.5726033 45.4039085,19.0888524 C45.4039085,19.5431516 45.1432451,19.7496513 44.7894875,19.7909512 L45.4411462,20.9473492 L45.0129133,20.9473492 L44.3984923,19.8322511 L44.0261159,19.8322511 L44.0447347,20.9679992 L44.0447347,20.9679992 Z M44.4915864,19.4605518 C44.7894875,19.4605518 45.0315321,19.4192519 45.0315321,19.0475525 C45.0315321,18.7171531 44.7522498,18.6758532 44.528824,18.6758532 L44.0633535,18.6758532 L44.0633535,19.4399018 L44.4915864,19.4399018 L44.4915864,19.4605518 L44.4915864,19.4605518 Z"></path>
                        </g>
                    </g>
                </g>
            </g>
        </g>
    </g>
</svg>