<?xml version="1.0" encoding="UTF-8" standalone="no"?>
<svg width="117px" height="17px" viewBox="0 0 117 17" version="1.1" xmlns="http://www.w3.org/2000/svg" xmlns:xlink="http://www.w3.org/1999/xlink" xmlns:sketch="http://www.bohemiancoding.com/sketch/ns">
    <!-- Generator: Sketch 3.3.3 (12081) - http://www.bohemiancoding.com/sketch -->
    <title>TOUGHSwitch</title>
    <desc>Created with Sketch.</desc>
    <defs></defs>
    <g id="Page-1" stroke="none" stroke-width="1" fill="none" fill-rule="evenodd" sketch:type="MSPage">
        <g id="Artboard-1" sketch:type="MSArtboardGroup" transform="translate(-1028.000000, -282.000000)" fill="#D8D8D8">
            <g id="TOUGHSwitch-+-Rectangle" sketch:type="MSLayerGroup" transform="translate(1006.000000, 260.000000)">
                <g id="TOUGHSwitch" transform="translate(22.000000, 22.000000)" sketch:type="MSShapeGroup">
                    <path d="M115.656122,1.85544581 L115.08918,0.377961183 L114.505058,0.377961183 L114.505058,2.45674769 L114.9002,2.45674769 L114.9002,0.807462528 L114.91738,0.807462528 L115.518682,2.45674769 L115.810743,2.45674769 L116.412044,0.807462528 L116.429224,0.807462528 L116.429224,2.45674769 L116.824366,2.45674769 L116.824366,0.377961183 L116.223064,0.377961183 L115.656122,1.85544581 L115.656122,1.85544581 Z M112.409092,0.721562259 L113.044754,0.721562259 L113.044754,2.45674769 L113.474255,2.45674769 L113.474255,0.721562259 L114.092737,0.721562259 L114.092737,0.377961183 L112.409092,0.377961183 L112.409092,0.721562259 L112.409092,0.721562259 Z M0,3.91705226 L3.12676979,3.91705226 L3.12676979,16.3382311 L7.2843428,16.3382311 L7.2843428,3.91705226 L10.4111126,3.91705226 L10.4111126,0.377961183 L0,0.377961183 L0,3.91705226 L0,3.91705226 Z M16.1320705,0.0687202151 C11.8714172,0.0687202151 10.4282926,2.38802748 10.4282926,8.36668619 C10.4282926,14.3453449 11.8885972,16.6646522 16.1320705,16.6646522 C20.3755438,16.6646522 21.8358484,14.3453449 21.8358484,8.36668619 C21.8358484,2.40520753 20.3927238,0.0687202151 16.1320705,0.0687202151 L16.1320705,0.0687202151 L16.1320705,0.0687202151 Z M16.1320705,13.8471233 C14.8607465,13.8471233 14.7233061,12.6960597 14.7233061,8.36668619 C14.7233061,4.05449269 14.8607465,2.88624903 16.1320705,2.88624903 C17.4033945,2.88624903 17.5408349,4.03731264 17.5408349,8.36668619 C17.5408349,12.6788797 17.4033945,13.8471233 16.1320705,13.8471233 L16.1320705,13.8471233 Z M29.3435319,11.8885972 C29.3435319,13.4348021 28.8624903,13.8299433 28.0893879,13.8299433 C27.2991055,13.8299433 26.8524241,13.4348021 26.8524241,11.8885972 L26.8524241,0.377961183 L22.694851,0.377961183 L22.694851,10.8406139 C22.694851,15.3074279 24.6190171,16.6474721 28.106568,16.6474721 C31.5941189,16.6474721 33.5182849,15.3074279 33.5182849,10.8406139 L33.5182849,0.377961183 L29.3607119,0.377961183 L29.3435319,11.8885972 L29.3435319,11.8885972 Z M40.3731264,2.88624903 C40.8541679,2.88624903 41.1805889,3.14394984 41.3352094,3.59063124 C41.4898299,4.02013258 41.5585501,4.63861452 41.5585501,5.44607705 L45.5958627,5.44607705 C45.5958627,1.58056495 43.4998962,0.0859002689 40.5449269,0.0859002689 C35.6314315,0.0859002689 34.6006283,3.04086952 34.6006283,8.38386624 C34.6006283,13.6581428 34.9785895,16.6818322 39.2048827,16.6818322 C40.6136471,16.6818322 42.0911318,16.3210511 42.6408935,14.9638268 L42.6924336,14.9638268 L42.7783339,16.3725913 L45.5958627,16.3725913 L45.5958627,7.71384415 L40.2356859,7.71384415 L40.2356859,10.531373 L41.7131706,10.531373 C41.6788105,13.3145417 41.1805889,13.8814835 40.3044062,13.8814835 C39.0330822,13.8814835 38.8956418,12.7304199 38.8956418,8.4010463 C38.8784617,4.05449269 38.9987221,2.88624903 40.3731264,2.88624903 L40.3731264,2.88624903 L40.3731264,2.88624903 Z M53.5330476,6.25353958 L50.9903996,6.25353958 L50.9903996,0.377961183 L46.8328266,0.377961183 L46.8328266,16.3382311 L50.9903996,16.3382311 L50.9903996,9.7754506 L53.5330476,9.7754506 L53.5330476,16.3382311 L57.6906206,16.3382311 L57.6906206,0.377961183 L53.5330476,0.377961183 L53.5330476,6.25353958 L53.5330476,6.25353958 Z M62.5182157,4.27783339 C62.5182157,2.57700807 63.4974788,1.68364527 65.163944,1.68364527 C67.0537499,1.68364527 67.6378717,2.85188893 67.6378717,4.5355342 L69.6135779,4.5355342 C69.5620378,1.597745 68.1704534,0.0859002689 65.1467639,0.0859002689 C61.1094513,0.0859002689 60.4737893,3.02368947 60.4737893,4.48399404 C60.4737893,10.3423924 67.9986529,7.7310242 67.9986529,12.2321983 C67.9986529,13.9330236 66.7960491,15.0497271 65.2326642,15.0497271 C62.3464152,15.0497271 62.2433348,13.1255611 62.2433348,11.3388355 L60.2676287,11.3388355 C60.2676287,14.7233061 61.3671521,16.6646522 65.0952238,16.6646522 C67.3458108,16.6646522 70.0602593,15.6166689 70.0602593,11.9229573 C70.0430793,6.08173904 62.5182157,8.76182743 62.5182157,4.27783339 L62.5182157,4.27783339 L62.5182157,4.27783339 Z M80.7462528,14.1563643 L80.6775325,14.1563643 L78.7018264,4.36373366 L76.4855994,4.36373366 L74.4583531,14.1563643 L74.423993,14.1563643 L72.4826469,4.36373366 L70.5241208,4.36373366 L73.3244695,16.3382311 L75.4891563,16.3382311 L77.5164027,6.56278054 L77.5507628,6.56278054 L79.6639094,16.3382311 L81.7255158,16.3382311 L84.5430446,4.36373366 L82.6016986,4.36373366 L80.7462528,14.1563643 L80.7462528,14.1563643 Z M85.6769282,0.377961183 L87.5667341,0.377961183 L87.5667341,2.52546791 L85.6769282,2.52546791 L85.6769282,0.377961183 L85.6769282,0.377961183 Z M85.6769282,4.36373366 L87.5667341,4.36373366 L87.5667341,16.3382311 L85.6769282,16.3382311 L85.6769282,4.36373366 L85.6769282,4.36373366 Z M92.0850883,0.893362796 L90.1952823,0.893362796 L90.1952823,4.38091371 L88.4429169,4.38091371 L88.4429169,5.85839834 L90.1952823,5.85839834 L90.1952823,14.1220042 C90.1952823,15.6853891 90.6763238,16.4928516 92.6176699,16.4928516 C93.4079524,16.4928516 93.8889939,16.4069514 94.1466947,16.3554112 L94.1466947,14.8092064 C93.9405341,14.8435665 93.7171934,14.8779266 93.3220521,14.8779266 C92.3427891,14.8779266 92.0850883,14.4999654 92.0850883,13.5378824 L92.0850883,5.84121828 L94.1638748,5.84121828 L94.1638748,4.36373366 L92.0850883,4.36373366 L92.0850883,0.893362796 L92.0850883,0.893362796 Z M99.2491707,5.51479726 C100.692295,5.51479726 101.138977,6.8376614 101.138977,7.98872501 L103.028783,7.98872501 C103.028783,6.6143207 102.461841,4.03731264 99.2148106,4.03731264 C95.521099,4.03731264 94.9541572,7.5076835 94.9541572,10.4970129 C94.9541572,14.6202258 96.1911211,16.6474721 99.1117303,16.6474721 C102.10106,16.6474721 103.045963,14.070464 103.045963,12.1806581 L101.156157,12.1806581 C101.156157,13.4691622 100.795376,15.1699875 99.1804505,15.1699875 C96.9298634,15.1699875 96.8955033,12.0432177 96.8955033,10.4798328 C96.8955033,6.11609915 98.080927,5.51479726 99.2491707,5.51479726 L99.2491707,5.51479726 L99.2491707,5.51479726 Z M109.316682,4.05449269 C108.251519,4.05449269 106.928655,4.7588749 106.430433,5.72095791 L106.378893,5.72095791 L106.378893,0.395141237 L104.489087,0.395141237 L104.489087,16.3382311 L106.378893,16.3382311 L106.378893,8.07462528 C106.378893,6.32225979 107.736117,5.65223769 108.74974,5.65223769 C110.450566,5.65223769 110.519286,7.14690237 110.519286,8.07462528 L110.519286,16.3382311 L112.409092,16.3382311 L112.409092,7.85128458 C112.409092,6.44252017 112.409092,4.05449269 109.316682,4.05449269 L109.316682,4.05449269 L109.316682,4.05449269 Z" id="Shape"></path>
                </g>
            </g>
        </g>
    </g>
</svg>