<?xml version="1.0" encoding="UTF-8" standalone="no"?>
<svg width="98px" height="32px" viewBox="0 0 98 32" version="1.1" xmlns="http://www.w3.org/2000/svg" xmlns:xlink="http://www.w3.org/1999/xlink" xmlns:sketch="http://www.bohemiancoding.com/sketch/ns">
    <!-- Generator: Sketch 3.3.3 (12081) - http://www.bohemiancoding.com/sketch -->
    <title>unifi-video</title>
    <desc>Created with Sketch.</desc>
    <defs></defs>
    <g id="Page-1" stroke="none" stroke-width="1" fill="none" fill-rule="evenodd" sketch:type="MSPage">
        <g id="Artboard-1" sketch:type="MSArtboardGroup" transform="translate(-357.000000, -535.000000)" fill="#D8D8D8">
            <g id="unifi-video-+-Rectangle" sketch:type="MSLayerGroup" transform="translate(337.000000, 525.000000)">
                <g id="unifi-video" transform="translate(20.000000, 10.000000)" sketch:type="MSShapeGroup">
                    <g id="Group">
                        <path d="M31.4058361,13.3366665 L34.7396719,13.3366665 L35.3527912,10.5247653 C33.6283933,10.6586653 32.6129146,11.4238085 31.9423154,12.4184947 C31.6932357,12.7628091 31.5399559,12.9923521 31.4058361,13.3366665 L31.4058361,13.3366665 Z" id="Shape"></path>
                        <path d="M31.0992764,15.6894819 L27.7462806,31.4705603 L30.9268366,31.4705603 L34.2798325,15.6894819 L31.0992764,15.6894819 Z" id="Shape"></path>
                        <path d="M39.3763862,19.1517548 L40.6026247,13.3366665 L47.9792156,13.3366665 L48.5923349,10.5247653 L37.8627481,10.5247653 L33.3984736,31.4705603 L36.7514695,31.4705603 L38.782427,21.9636561 L46.1590179,21.9636561 L46.7529772,19.1517548 L39.3763862,19.1517548 Z" id="Shape"></path>
                        <path d="M24.8339641,15.2877817 C23.0712463,15.2877817 21.4043284,16.1294392 20.3122097,17.5449541 L20.2164098,17.5449541 L20.5996094,15.6894819 L17.610653,15.6894819 L14.2576572,31.4896889 L17.4190533,31.4896889 L19.6799305,20.8924556 C20.1206099,18.8456975 21.5767682,17.8127542 22.8604866,17.8127542 C24.4507646,17.8127542 24.8914441,18.6161546 24.4507646,20.6629126 L22.1515674,31.4896889 L25.3321235,31.4896889 L27.8612404,19.5725836 C28.5318396,16.3781107 27.2481212,15.2877817 24.8339641,15.2877817 L24.8339641,15.2877817 Z" id="Shape"></path>
                        <path d="M36.4832298,5.18789149 C32.2105551,5.30266297 29.4131985,7.0816209 27.8995604,9.24315043 C26.9032416,10.6395368 26.4050822,12.0933088 26.1368425,13.3175379 L29.010839,13.3366665 C29.2407587,12.5332662 29.6047983,11.6533515 30.1604376,10.8690797 C31.1950763,9.47269339 32.7853544,8.24846428 35.8892705,7.99979274 L36.4832298,5.18789149 L36.4832298,5.18789149 Z" id="Shape"></path>
                        <path d="M26.1943225,7.69373546 C28.0145202,5.22614865 31.0226365,3.08374771 36.9430692,3.10287629 L37.5370285,0.3292322 C30.5627971,0.118817821 26.2518024,2.79681901 23.9334453,6.06780617 C22.1132475,8.6119073 21.4426483,11.3664228 21.1744086,13.3175379 L23.9909252,13.3366665 C24.2591649,11.7107372 24.8531241,9.54920771 26.1943225,7.69373546 L26.1943225,7.69373546 Z" id="Shape"></path>
                        <path d="M12.9164588,10.5247653 L9.71674275,25.5598291 C9.14194346,28.1995731 7.81990509,29.3664165 5.82726754,29.3664165 C3.79631004,29.3664165 3.01075101,28.1995731 3.56639033,25.5598291 L6.76610639,10.5247653 L3.41311052,10.5247653 L0.270874384,25.292029 C-0.763764343,30.1315597 1.26719316,31.891389 5.2907882,31.891389 C9.29522327,31.891389 12.0734199,30.1315597 13.1080586,25.292029 L16.2694547,10.5247653 L12.9164588,10.5247653 L12.9164588,10.5247653 Z" id="Shape"></path>
                        <path d="M46.5613774,31.4705603 L49.7610935,31.4705603 L53.1140893,15.6894819 L49.9335332,15.6894819 L46.5613774,31.4705603 Z" id="Shape"></path>
                        <path d="M95.8983167,15.8425105 L61.2187593,15.8425105 C60.3948804,15.8425105 59.7242812,19.3812978 59.7242812,23.7234854 C59.7242812,28.0848016 60.3948804,31.6044603 61.2187593,31.6044603 L95.8791567,31.6044603 C96.7030357,31.6044603 97.5269146,28.0848016 97.5269146,23.7234854 C97.5460746,19.3812978 96.7030357,15.8425105 95.8983167,15.8425105 L95.8983167,15.8425105 Z M68.7486301,28.4482446 L66.8326324,28.4482446 L64.6100752,18.9987262 L66.2195132,18.9987262 L67.8289512,26.5353867 L67.8481112,26.5353867 L69.5533491,18.9987262 L71.1627871,18.9987262 L68.7486301,28.4482446 L68.7486301,28.4482446 Z M72.9638249,28.4482446 L71.4501868,28.4482446 L71.4501868,18.9987262 L72.9638249,18.9987262 L72.9638249,28.4482446 L72.9638249,28.4482446 Z M76.8149801,28.4482446 L74.1325835,28.4482446 L74.1325835,18.9987262 L76.8149801,18.9987262 C79.7847765,18.9987262 80.148816,20.9307127 80.148816,23.7234854 C80.148816,26.5162581 79.7847765,28.4482446 76.8149801,28.4482446 L76.8149801,28.4482446 Z M86.3949684,28.4482446 L81.1642948,28.4482446 L81.1642948,18.9987262 L86.2800085,18.9987262 L86.2800085,20.2612125 L82.6779329,20.2612125 L82.6779329,22.8818279 L86.0692488,22.8818279 L86.0692488,24.1443142 L82.6779329,24.1443142 L82.6779329,27.1666298 L86.3949684,27.1666298 L86.3949684,28.4482446 L86.3949684,28.4482446 Z M90.1120038,28.6395304 C87.9469264,28.6395304 86.9889276,27.1092441 86.9889276,23.7234854 C86.9889276,22.4609991 87.1230475,21.4471844 87.4104471,20.6820412 C87.506247,20.4333697 87.6212068,20.2038267 87.7361667,19.9934123 C87.8702865,19.782998 88.0044064,19.6108407 88.1768462,19.4578121 C88.6558456,18.9987262 89.3072848,18.7883118 90.1120038,18.7883118 C92.2770811,18.7883118 93.2350799,20.3185982 93.2350799,23.7043568 C93.2350799,27.0901155 92.2962411,28.6395304 90.1120038,28.6395304 L90.1120038,28.6395304 Z" id="Shape"></path>
                        <path d="M77.1023798,20.1655696 L76.8724601,20.146441 L75.6270616,20.146441 L75.6270616,27.3196584 L76.8724601,27.3196584 C78.1370185,27.3196584 78.6351779,26.4971295 78.6351779,23.742614 L78.6351779,23.7234854 C78.6351779,21.23677 78.2519784,20.2612125 77.1023798,20.1655696 L77.1023798,20.1655696 Z" id="Shape"></path>
                        <path d="M90.1120038,19.9551552 L90.0353639,19.9551552 C89.9778839,19.9551552 89.920404,19.9551552 89.8629241,19.9742838 C89.8054442,19.9742838 89.7479642,19.9934123 89.7096443,20.0125409 L89.5563645,20.0699267 L89.4797246,20.1081838 C89.4222446,20.1273124 89.3839247,20.1655696 89.3456047,20.2038267 C89.3072848,20.2420839 89.2498048,20.280341 89.2114849,20.3185982 C89.0773651,20.4524983 88.9624052,20.6246555 88.8666053,20.873327 C88.8474453,20.9115842 88.8282854,20.9498413 88.8282854,21.0072271 C88.7899654,21.10287 88.7708054,21.1793843 88.7516455,21.2941558 C88.5983656,21.8488846 88.5217257,22.6331564 88.5217257,23.7234854 L88.5217257,23.7234854 C88.5217257,24.832943 88.5983656,25.6363434 88.7516455,26.2102008 L88.8282854,26.4971295 C88.8474453,26.5353867 88.8666053,26.5927724 88.8666053,26.6310296 C88.9624052,26.8797011 89.0773651,27.0518583 89.2114849,27.1857584 L89.3456047,27.3005299 C89.3456047,27.3005299 89.4414046,27.3579156 89.4797246,27.3961728 L89.5563645,27.4344299 L89.7096443,27.4918157 C89.7096443,27.4918157 89.8054442,27.5109442 89.8629241,27.5300728 L90.0353639,27.5492014 L90.1120038,27.5492014 C91.0125227,27.5492014 91.7406018,26.9944726 91.7214418,23.742614 L91.7214418,23.742614 C91.7406018,20.509884 91.0125227,19.9551552 90.1120038,19.9551552 L90.1120038,19.9551552 Z" id="Shape"></path>
                        <path d="M51.0448119,10.5247653 L50.4125327,13.3366665 L53.401489,13.3366665 C53.363169,11.0412369 51.0448119,10.5247653 51.0448119,10.5247653 L51.0448119,10.5247653 Z" id="Shape"></path>
                        <path d="M58.7279624,12.2463375 C58.7279624,11.768123 58.4405628,11.5577086 57.8466035,11.5577086 L56.9269246,11.5577086 L56.9269246,13.9870382 L57.3101242,13.9870382 L57.3101242,12.9540949 L57.6933237,12.9540949 L58.3256029,13.9870382 L58.7854423,13.9870382 L58.0956832,12.9158378 C58.4597227,12.858452 58.7279624,12.6862948 58.7279624,12.2463375 L58.7279624,12.2463375 Z M57.3101242,12.6097805 L57.3101242,11.902023 L57.7891236,11.902023 C58.0382033,11.902023 58.3256029,11.9402802 58.3256029,12.2272089 C58.3256029,12.5715233 58.0765232,12.6097805 57.7699636,12.6097805 L57.3101242,12.6097805 L57.3101242,12.6097805 Z" id="Shape"></path>
                        <path d="M57.7508036,10.5247653 C56.5820451,10.5247653 55.5857263,11.40468 55.5857263,12.724552 C55.5857263,13.9870382 56.4862452,14.9243387 57.7508036,14.9243387 C58.9004022,14.9243387 59.896721,14.044424 59.896721,12.724552 C59.896721,11.40468 58.9004022,10.5247653 57.7508036,10.5247653 L57.7508036,10.5247653 Z M57.7508036,14.5417671 C56.7161649,14.5417671 56.0647257,13.7192381 56.0647257,12.724552 C56.0647257,11.6533515 56.7928048,10.9073369 57.7508036,10.9073369 C58.6896425,10.9073369 59.4368815,11.6533515 59.4368815,12.724552 C59.4368815,13.7957524 58.6896425,14.5417671 57.7508036,14.5417671 L57.7508036,14.5417671 Z" id="Shape"></path>
                    </g>
                </g>
            </g>
        </g>
    </g>
</svg>