<?xml version="1.0" encoding="UTF-8" standalone="no"?>
<svg width="97px" height="34px" viewBox="0 0 97 34" version="1.1" xmlns="http://www.w3.org/2000/svg" xmlns:xlink="http://www.w3.org/1999/xlink" xmlns:sketch="http://www.bohemiancoding.com/sketch/ns">
    <!-- Generator: Sketch 3.3.3 (12081) - http://www.bohemiancoding.com/sketch -->
    <title>UniFi-VoIP</title>
    <desc>Created with Sketch.</desc>
    <defs></defs>
    <g id="Page-1" stroke="none" stroke-width="1" fill="none" fill-rule="evenodd" sketch:type="MSPage">
        <g id="Artboard-1" sketch:type="MSArtboardGroup" transform="translate(-512.000000, -533.000000)" fill="#D8D8D8">
            <g id="UniFi-VoIP-+-Rectangle" sketch:type="MSLayerGroup" transform="translate(492.000000, 525.000000)">
                <g id="UniFi-VoIP" transform="translate(20.000000, 8.000000)" sketch:type="MSShapeGroup">
                    <g id="Group">
                        <path d="M28.1162688,7.89683605 C30.0666166,5.25587155 33.2723605,2.95062289 39.6390129,2.995385 L40.2891288,0.0410857339 C32.8240047,-0.205105871 28.1835222,2.68205023 25.7175653,6.19587587 C23.7672176,8.90398352 23.0274305,11.8806638 22.758417,13.984483 L25.7624009,13.9397209 C26.0538321,12.1939986 26.7039481,9.88874994 28.1162688,7.89683605 L28.1162688,7.89683605 Z" id="Shape"></path>
                        <path d="M39.1234037,5.21110944 C34.5277568,5.32301472 31.5237729,7.24778545 29.909692,9.55303412 C28.8560559,11.0525648 28.2956111,12.5968576 28.0041799,13.9397209 L28.0714332,13.9397209 L31.1202527,13.9397209 C31.3668484,13.0892408 31.7703686,12.1044744 32.3308133,11.2987564 C33.429285,9.79922572 35.1330371,8.50112453 38.4732878,8.21017082 L39.1234037,5.21110944 L39.1234037,5.21110944 Z" id="Shape"></path>
                        <path d="M33.6982985,13.9397209 L37.2627271,13.9397209 L37.912843,10.9406595 C36.0521665,11.0973269 34.9985303,11.9030449 34.2587433,12.9773355 C34.0121476,13.3354324 33.8552231,13.581624 33.6982985,13.9397209 L33.6982985,13.9397209 Z" id="Shape"></path>
                        <path d="M33.3620317,16.4911612 L29.7976031,33.3888577 L33.2051071,33.3888577 L36.7695358,16.4911612 L33.3620317,16.4911612 Z" id="Shape"></path>
                        <path d="M26.6366947,16.0435401 C24.7536003,16.0435401 22.9825949,16.9835444 21.7944521,18.4830751 L21.7047809,18.4830751 L22.1083011,16.4911612 L18.9025572,16.4911612 L15.2484574,33.3888577 L18.6559615,33.3888577 L21.0995006,22.0416628 C21.5926919,19.8483194 23.1171017,18.7516477 24.5070046,18.7516477 C26.2107567,18.7516477 26.7039481,19.6021278 26.2107567,21.7954712 L23.7447998,33.3888577 L27.1523039,33.3888577 L29.8872742,20.6316564 C30.6270613,17.229736 29.2371583,16.0435401 26.6366947,16.0435401 L26.6366947,16.0435401 Z" id="Shape"></path>
                        <path d="M42.2618943,20.1840353 L43.6069617,13.9397209 L51.475606,13.9397209 L52.1257219,10.9406595 L40.6253956,10.9406595 L35.8952419,33.3664767 L39.4596705,33.3664767 L41.656614,23.1830966 L49.5700938,23.1830966 L50.1753741,20.1840353 L42.2618943,20.1840353 Z" id="Shape"></path>
                        <path d="M13.8809722,10.9406595 L10.4286325,27.0326381 C9.84577001,29.8750321 8.43344924,31.1283712 6.2813414,31.1283712 C4.08439799,31.1283712 3.23252197,29.8750321 3.8378023,27.0326381 L7.29014195,10.9406595 L3.68087777,10.9406595 L0.318209275,26.7416844 C-0.780262433,31.889327 1.41668098,33.7917167 5.72089666,33.7917167 C9.98027675,33.7917167 12.9842606,31.9340891 14.0827323,26.7416844 L17.4454008,10.9406595 L13.8809722,10.9406595 L13.8809722,10.9406595 Z" id="Shape"></path>
                        <path d="M49.973614,33.3888577 L53.3811181,33.3888577 L56.9455467,16.4911612 L53.5380426,16.4911612 L49.973614,33.3888577 Z" id="Shape"></path>
                        <path d="M94.0245713,16.6030665 L65.6436492,16.6030665 C64.7469376,16.6030665 64.0295683,20.3630837 64.0295683,25.0407242 C64.0295683,29.7183647 64.7693554,33.4783819 65.6436492,33.4783819 L94.0245713,33.4783819 C94.9212829,33.4783819 96.4232748,29.7183647 96.4232748,25.0407242 C96.3784393,20.4302269 94.8764473,16.6030665 94.0245713,16.6030665 L94.0245713,16.6030665 Z M71.539528,30.0764616 L71.539528,30.0764616 L69.18566,20.0273679 L70.8894121,20.0273679 L72.5931641,28.0621666 L72.6379997,28.0621666 L74.4314229,20.0273679 L76.1351749,20.0273679 L73.5571291,30.0764616 L71.539528,30.0764616 L71.539528,30.0764616 Z M78.7132208,30.2778911 C76.6059485,30.2778911 75.910997,28.6664551 75.910997,26.2940633 C75.910997,23.9440525 76.5162774,22.3102355 78.7132208,22.3102355 C80.9549998,22.3102355 81.5602801,23.9216714 81.5602801,26.2940633 C81.5602801,28.6440741 80.820493,30.2778911 78.7132208,30.2778911 L78.7132208,30.2778911 Z M84.1607437,30.0764616 L82.5466628,30.0764616 L82.5466628,20.0273679 L84.1607437,20.0273679 L84.1607437,30.0764616 L84.1607437,30.0764616 Z M88.509795,25.9359664 L87.0974742,25.9359664 L87.0974742,30.0764616 L85.4833933,30.0764616 L85.4833933,20.0273679 L88.6891373,20.0273679 C90.639485,20.0273679 91.4465255,21.2359448 91.4465255,22.936905 C91.4689433,24.7497705 90.4153071,25.9359664 88.509795,25.9359664 L88.509795,25.9359664 Z" id="Shape"></path>
                        <path d="M78.7132208,23.4292882 C77.6147491,23.4292882 77.4129889,24.6154842 77.4129889,26.3164443 C77.4129889,28.2635961 77.6147491,29.2036004 78.7132208,29.2036004 C79.8116925,29.2036004 80.0134526,28.2635961 80.0134526,26.3164443 C80.0582882,24.5931031 79.8565281,23.4292882 78.7132208,23.4292882 L78.7132208,23.4292882 Z" id="Shape"></path>
                        <path d="M88.1286925,21.2359448 L88.1286925,21.2359448 L87.119892,21.2359448 L87.119892,24.7273894 L88.2631993,24.7273894 C89.1150753,24.7273894 89.8772802,24.2797683 89.8772802,22.9816671 C89.8548624,21.8849954 89.4065066,21.2359448 88.1286925,21.2359448 L88.1286925,21.2359448 Z" id="Shape"></path>
                        <path d="M54.7261855,10.9406595 L54.031234,13.9397209 L57.236978,13.9397209 C57.1921424,11.4554238 54.7261855,10.9406595 54.7261855,10.9406595 L54.7261855,10.9406595 Z" id="Shape"></path>
                        <path d="M61.9222961,10.9854216 C60.6444821,10.9854216 59.5684281,11.9925691 59.5684281,13.3130514 C59.5684281,14.6559147 60.6444821,15.6630621 61.9222961,15.6630621 C63.2001101,15.6630621 64.276164,14.6559147 64.276164,13.3130514 C64.276164,11.9925691 63.2225279,10.9854216 61.9222961,10.9854216 L61.9222961,10.9854216 Z M61.9222961,15.3273463 C60.8238244,15.3273463 59.9943661,14.4544852 59.9943661,13.3130514 C59.9943661,12.1939986 60.8238244,11.3211375 61.9222961,11.3211375 C62.99835,11.3211375 63.850226,12.1939986 63.850226,13.3130514 C63.850226,14.4544852 63.0207678,15.3273463 61.9222961,15.3273463 L61.9222961,15.3273463 Z" id="Shape"></path>
                        <path d="M63.0431856,12.7311439 C63.0431856,12.2163797 62.7293365,11.947807 62.0792206,11.947807 L61.0255845,11.947807 L61.0255845,14.6782957 L61.4515225,14.6782957 L61.4515225,13.4920998 L61.8998783,13.4920998 L62.6396654,14.6782957 L63.0880212,14.6782957 L62.3033985,13.4697187 C62.7293365,13.4249566 63.0431856,13.2235271 63.0431856,12.7311439 L63.0431856,12.7311439 Z M61.8998783,13.156384 L61.4515225,13.156384 L61.4515225,12.2835228 L62.0119672,12.2835228 C62.3033985,12.2835228 62.6172476,12.350666 62.6172476,12.7087629 C62.6172476,13.156384 62.2585629,13.156384 61.8998783,13.156384 L61.8998783,13.156384 Z" id="Shape"></path>
                    </g>
                </g>
            </g>
        </g>
    </g>
</svg>