<?xml version="1.0" encoding="UTF-8" standalone="no"?>
<svg width="66px" height="35px" viewBox="0 0 66 35" version="1.1" xmlns="http://www.w3.org/2000/svg" xmlns:xlink="http://www.w3.org/1999/xlink" xmlns:sketch="http://www.bohemiancoding.com/sketch/ns">
    <!-- Generator: Sketch 3.3.3 (12081) - http://www.bohemiancoding.com/sketch -->
    <title>unifi-video</title>
    <desc>Created with Sketch.</desc>
    <defs></defs>
    <g id="Page-1" stroke="none" stroke-width="1" fill="none" fill-rule="evenodd" sketch:type="MSPage">
        <g id="Artboard-1" sketch:type="MSArtboardGroup" transform="translate(-232.000000, -532.000000)" fill="#D8D8D8">
            <g id="unifi-+-Rectangle" sketch:type="MSLayerGroup" transform="translate(211.000000, 525.000000)">
                <g id="unifi-video" transform="translate(21.000000, 7.000000)" sketch:type="MSShapeGroup">
                    <g id="Group">
                        <path d="M34.2890141,14.623251 L37.9289091,14.623251 L38.5983151,11.5400865 C36.7156108,11.6869038 35.6069071,12.5258602 34.8747443,13.6165034 C34.6027981,13.9940338 34.4354466,14.2457207 34.2890141,14.623251 L34.2890141,14.623251 Z" id="Shape"></path>
                        <path d="M33.9543111,17.2030418 L30.2934971,34.5065165 L33.7660407,34.5065165 L37.4268546,17.2030418 L33.9543111,17.2030418 Z" id="Shape"></path>
                        <path d="M42.9912918,20.9993193 L44.3301038,14.623251 L52.3838945,14.623251 L53.0533004,11.5400865 L41.3386958,11.5400865 L36.4645835,34.5065165 L40.1253975,34.5065165 L42.3428048,24.0824839 L50.3965955,24.0824839 L51.0450825,20.9993193 L42.9912918,20.9993193 Z" id="Shape"></path>
                        <path d="M27.1138187,16.7625897 C25.1892766,16.7625897 23.3693291,17.6854417 22.1769497,19.237511 L22.072355,19.237511 L22.4907337,17.2030418 L19.2273796,17.2030418 L15.5665656,34.5274904 L19.0181902,34.5274904 L21.4866247,22.907945 C21.9677603,20.6637367 23.5575995,19.5311457 24.9591683,19.5311457 C26.69544,19.5311457 27.1765756,20.4120498 26.69544,22.6562581 L24.1851676,34.5274904 L27.6577111,34.5274904 L30.4190108,21.4607453 C31.1511736,17.9581025 29.7496048,16.7625897 27.1138187,16.7625897 L27.1138187,16.7625897 Z" id="Shape"></path>
                        <path d="M39.8325324,5.68836595 C35.1676094,5.8142094 32.1134447,7.76478291 30.4608486,10.1348346 C29.3730639,11.6659299 28.8291716,13.259947 28.5363065,14.6022771 L31.674147,14.623251 C31.9251742,13.7423469 32.322634,12.7775471 32.9292832,11.9176168 C34.0589058,10.3865215 35.7951775,9.04419133 39.1840453,8.77153052 L39.8325324,5.68836595 L39.8325324,5.68836595 Z" id="Shape"></path>
                        <path d="M28.5990633,8.43594798 C30.5863623,5.73031376 33.8706353,3.38123599 40.3345868,3.4022099 L40.9830739,0.360993139 C33.3685809,0.130280143 28.6618201,3.06662736 26.1306287,6.65316574 C24.1433297,9.4426956 23.4111669,12.4629385 23.1183018,14.6022771 L26.1933855,14.623251 C26.4862506,12.8404688 27.1347377,10.4704171 28.5990633,8.43594798 L28.5990633,8.43594798 Z" id="Shape"></path>
                        <path d="M14.10224,11.5400865 L10.6087776,28.0255787 C9.98120947,30.9199781 8.53780283,32.1993865 6.36223339,32.1993865 C4.14482609,32.1993865 3.28714968,30.9199781 3.89379884,28.0255787 L7.3872613,11.5400865 L3.72644735,11.5400865 L0.295741707,27.731944 C-0.833880883,33.0383429 1.38352642,34.9679425 5.77650316,34.9679425 C10.148561,34.9679425 13.1818068,33.0383429 14.3114294,27.731944 L17.763054,11.5400865 L14.10224,11.5400865 L14.10224,11.5400865 Z" id="Shape"></path>
                        <path d="M50.8358931,34.5065165 L54.3293556,34.5065165 L57.9901695,17.2030418 L54.517626,17.2030418 L50.8358931,34.5065165 Z" id="Shape"></path>
                        <path d="M55.7309244,11.5400865 L55.0405994,14.623251 L58.3039536,14.623251 C58.2621157,12.106382 55.7309244,11.5400865 55.7309244,11.5400865 L55.7309244,11.5400865 Z" id="Shape"></path>
                        <path d="M64.119418,13.4277383 C64.119418,12.9033905 63.805634,12.6726775 63.1571469,12.6726775 L62.153038,12.6726775 L62.153038,15.3363639 L62.5714167,15.3363639 L62.5714167,14.2037729 L62.9897954,14.2037729 L63.6801204,15.3363639 L64.1821748,15.3363639 L63.4290931,14.1618251 C63.8265529,14.0989033 64.119418,13.9101381 64.119418,13.4277383 L64.119418,13.4277383 Z M62.5714167,13.8262425 L62.5714167,13.0502079 L63.0943901,13.0502079 C63.3663363,13.0502079 63.6801204,13.0921557 63.6801204,13.4067643 C63.6801204,13.7842947 63.4081742,13.8262425 63.0734712,13.8262425 L62.5714167,13.8262425 L62.5714167,13.8262425 Z" id="Shape"></path>
                        <path d="M63.0525523,11.5400865 C61.7764971,11.5400865 60.6887124,12.5048863 60.6887124,13.952086 C60.6887124,15.3363639 61.6719024,16.3640855 63.0525523,16.3640855 C64.3076885,16.3640855 65.3954732,15.3992857 65.3954732,13.952086 C65.3954732,12.5048863 64.3076885,11.5400865 63.0525523,11.5400865 L63.0525523,11.5400865 Z M63.0525523,15.9446073 C61.9229297,15.9446073 61.2116858,15.0427292 61.2116858,13.952086 C61.2116858,12.7775471 62.0066054,11.9595646 63.0525523,11.9595646 C64.0775802,11.9595646 64.8934187,12.7775471 64.8934187,13.952086 C64.8934187,15.1266249 64.0775802,15.9446073 63.0525523,15.9446073 L63.0525523,15.9446073 Z" id="Shape"></path>
                    </g>
                </g>
            </g>
        </g>
    </g>
</svg>